# WaveFront *.obj file (generated by Autodesk ATF)

mtllib keylock.mtl

g Body1

v -5.000000 -0.000000 2.000000
v -4.944154 -0.745211 2.000000
v -4.777864 -1.473776 2.000000
v -4.504844 -2.169419 2.000000
v -4.131194 -2.816600 2.000000
v -3.665259 -3.400864 2.000000
v -3.117449 -3.909157 2.000000
v -2.500000 -4.330127 2.000000
v -1.826705 -4.654369 2.000000
v -1.112605 -4.874640 2.000000
v -0.373650 -4.986019 2.000000
v 0.373650 -4.986019 2.000000
v 1.112605 -4.874640 2.000000
v 1.826705 -4.654369 2.000000
v 2.500000 -4.330127 2.000000
v 3.117449 -3.909157 2.000000
v 3.665259 -3.400864 2.000000
v 4.131194 -2.816600 2.000000
v 4.504844 -2.169419 2.000000
v 4.777864 -1.473776 2.000000
v 4.944154 -0.745211 2.000000
v 5.000000 0.000000 2.000000
v 4.944154 0.745211 2.000000
v 4.777864 1.473776 2.000000
v 4.504844 2.169419 2.000000
v 4.131194 2.816600 2.000000
v 3.665259 3.400864 2.000000
v 3.117449 3.909157 2.000000
v 2.500000 4.330127 2.000000
v 1.826705 4.654369 2.000000
v 1.112605 4.874640 2.000000
v 0.373650 4.986019 2.000000
v -0.373650 4.986019 2.000000
v -1.112605 4.874640 2.000000
v -1.826705 4.654369 2.000000
v -2.500000 4.330127 2.000000
v -3.117449 3.909157 2.000000
v -3.665259 3.400864 2.000000
v -4.131194 2.816600 2.000000
v -4.504844 2.169419 2.000000
v -4.777864 1.473776 2.000000
v -4.944154 0.745211 2.000000
v -4.500000 0.000000 2.500000
v -4.444598 0.703955 2.500000
v -4.279754 1.390576 2.500000
v -4.009529 2.042957 2.500000
v -3.640576 2.645034 2.500000
v -3.181981 3.181981 2.500000
v -2.645034 3.640576 2.500000
v -2.042957 4.009529 2.500000
v -1.390576 4.279754 2.500000
v -0.703955 4.444598 2.500000
v 0.000000 4.500000 2.500000
v 0.703955 4.444598 2.500000
v 1.390576 4.279754 2.500000
v 2.042957 4.009529 2.500000
v 2.645034 3.640576 2.500000
v 3.181981 3.181981 2.500000
v 3.640576 2.645034 2.500000
v 4.009529 2.042957 2.500000
v 4.279754 1.390576 2.500000
v 4.444598 0.703955 2.500000
v 4.500000 0.000000 2.500000
v 4.444598 -0.703955 2.500000
v 4.279754 -1.390576 2.500000
v 4.009529 -2.042957 2.500000
v 3.640576 -2.645034 2.500000
v 3.181981 -3.181981 2.500000
v 2.645034 -3.640576 2.500000
v 2.042957 -4.009529 2.500000
v 1.390576 -4.279754 2.500000
v 0.703955 -4.444598 2.500000
v 0.000000 -4.500000 2.500000
v -0.703955 -4.444598 2.500000
v -1.390576 -4.279754 2.500000
v -2.042957 -4.009529 2.500000
v -2.645034 -3.640576 2.500000
v -3.181981 -3.181981 2.500000
v -3.640576 -2.645034 2.500000
v -4.009529 -2.042957 2.500000
v -4.279754 -1.390576 2.500000
v -4.444598 -0.703955 2.500000
v -5.000000 -0.000000 0.000000
v -4.944154 -0.745211 0.000000
v -4.777864 -1.473776 0.000000
v -4.504844 -2.169419 0.000000
v -4.131194 -2.816600 0.000000
v -3.665259 -3.400864 0.000000
v -3.117449 -3.909157 0.000000
v -2.500000 -4.330127 0.000000
v -1.826705 -4.654369 0.000000
v -1.112605 -4.874640 0.000000
v -0.373650 -4.986019 0.000000
v 0.373650 -4.986019 0.000000
v 1.112605 -4.874640 0.000000
v 1.826705 -4.654369 0.000000
v 2.500000 -4.330127 0.000000
v 3.117449 -3.909157 0.000000
v 3.665259 -3.400864 0.000000
v 4.131194 -2.816600 0.000000
v 4.504844 -2.169419 0.000000
v 4.777864 -1.473776 0.000000
v 4.944154 -0.745211 0.000000
v 5.000000 0.000000 0.000000
v 4.944154 0.745211 0.000000
v 4.777864 1.473776 0.000000
v 4.504844 2.169419 0.000000
v 4.131194 2.816600 0.000000
v 3.665259 3.400864 0.000000
v 3.117449 3.909157 0.000000
v 2.500000 4.330127 0.000000
v 1.826705 4.654369 0.000000
v 1.112605 4.874640 0.000000
v 0.373650 4.986019 0.000000
v -0.373650 4.986019 0.000000
v -1.112605 4.874640 0.000000
v -1.826705 4.654369 0.000000
v -2.500000 4.330127 0.000000
v -3.117449 3.909157 0.000000
v -3.665259 3.400864 0.000000
v -4.131194 2.816600 0.000000
v -4.504844 2.169419 0.000000
v -4.777864 1.473776 0.000000
v -4.944154 0.745211 0.000000
v 0.676520 1.263576 2.500000
v 1.500000 -2.000000 2.500000
v -1.500000 -2.000000 2.500000
v -0.676520 1.263576 2.500000
v -0.839035 1.455923 2.500000
v -0.948348 1.682769 2.500000
v -0.997528 1.929730 2.500000
v -0.983456 2.181147 2.500000
v -0.907024 2.421078 2.500000
v -0.773080 2.634309 2.500000
v -0.590115 2.807319 2.500000
v -0.369732 2.929138 2.500000
v -0.125905 2.992042 2.500000
v 0.125905 2.992042 2.500000
v 0.369732 2.929138 2.500000
v 0.590115 2.807319 2.500000
v 0.773080 2.634309 2.500000
v 0.907024 2.421078 2.500000
v 0.983456 2.181147 2.500000
v 0.997528 1.929730 2.500000
v 0.948348 1.682769 2.500000
v 0.839035 1.455923 2.500000
v -0.676520 1.263576 0.000000
v -0.839035 1.455923 0.000000
v -0.948348 1.682769 0.000000
v -0.997528 1.929730 0.000000
v -0.983456 2.181147 0.000000
v -0.907024 2.421078 0.000000
v -0.773080 2.634309 0.000000
v -0.590115 2.807319 0.000000
v -0.369732 2.929138 0.000000
v -0.125905 2.992042 0.000000
v 0.125905 2.992042 0.000000
v 0.369732 2.929138 0.000000
v 0.590115 2.807319 0.000000
v 0.773080 2.634309 0.000000
v 0.907024 2.421078 0.000000
v 0.983456 2.181147 0.000000
v 0.997528 1.929730 0.000000
v 0.948348 1.682769 0.000000
v 0.839035 1.455923 0.000000
v 0.676520 1.263576 0.000000
v -1.500000 -2.000000 0.000000
v 1.500000 -2.000000 0.000000
vt 0.353553 14.211967 0.000000
vt 0.353553 14.922565 0.000000
vt -0.353553 14.922565 0.000000
vt -0.353553 -14.922565 0.000000
vt 0.353553 -14.922565 0.000000
vt 0.353553 -14.211967 0.000000
vt -0.353553 -14.176437 0.000000
vt 0.353553 -13.501368 0.000000
vt -0.353553 -13.430309 0.000000
vt 0.353553 -12.790770 0.000000
vt -0.353553 -12.684180 0.000000
vt 0.353553 -12.080172 0.000000
vt -0.353553 -11.938052 0.000000
vt 0.353553 -11.369573 0.000000
vt -0.353553 -11.191924 0.000000
vt 0.353553 -10.658975 0.000000
vt -0.353553 -10.445796 0.000000
vt 0.353553 -9.948377 0.000000
vt -0.353553 -9.699667 0.000000
vt 0.353553 -9.237778 0.000000
vt -0.353553 -8.953539 0.000000
vt 0.353553 -8.527180 0.000000
vt -0.353553 -8.207411 0.000000
vt 0.353553 -7.816582 0.000000
vt -0.353553 -7.461283 0.000000
vt 0.353553 -7.105983 0.000000
vt -0.353553 -6.715154 0.000000
vt 0.353553 -6.395385 0.000000
vt -0.353553 -5.969026 0.000000
vt 0.353553 -5.684787 0.000000
vt -0.353553 -5.222898 0.000000
vt 0.353553 -4.974188 0.000000
vt -0.353553 -4.476770 0.000000
vt 0.353553 -4.263590 0.000000
vt -0.353553 -3.730641 0.000000
vt 0.353553 -3.552992 0.000000
vt -0.353553 -2.984513 0.000000
vt 0.353553 -2.842393 0.000000
vt -0.353553 -2.238385 0.000000
vt 0.353553 -2.131795 0.000000
vt -0.353553 -1.492257 0.000000
vt 0.353553 -1.421197 0.000000
vt -0.353553 -0.746128 0.000000
vt 0.353553 -0.710598 0.000000
vt -0.353553 0.000000 0.000000
vt 0.353553 0.000000 0.000000
vt 0.353553 0.710598 0.000000
vt -0.353553 0.746128 0.000000
vt 0.353553 1.421197 0.000000
vt -0.353553 1.492257 0.000000
vt 0.353553 2.131795 0.000000
vt -0.353553 2.238385 0.000000
vt 0.353553 2.842393 0.000000
vt -0.353553 2.984513 0.000000
vt 0.353553 3.552992 0.000000
vt -0.353553 3.730641 0.000000
vt 0.353553 4.263590 0.000000
vt -0.353553 4.476770 0.000000
vt 0.353553 4.974188 0.000000
vt -0.353553 5.222898 0.000000
vt 0.353553 5.684787 0.000000
vt -0.353553 5.969026 0.000000
vt 0.353553 6.395385 0.000000
vt -0.353553 6.715154 0.000000
vt 0.353553 7.105983 0.000000
vt -0.353553 7.461283 0.000000
vt 0.353553 7.816582 0.000000
vt -0.353553 8.207411 0.000000
vt 0.353553 8.527180 0.000000
vt -0.353553 8.953539 0.000000
vt 0.353553 9.237778 0.000000
vt -0.353553 9.699667 0.000000
vt 0.353553 9.948377 0.000000
vt -0.353553 10.445796 0.000000
vt 0.353553 10.658975 0.000000
vt -0.353553 11.191924 0.000000
vt 0.353553 11.369573 0.000000
vt -0.353553 11.938052 0.000000
vt 0.353553 12.080172 0.000000
vt -0.353553 12.684180 0.000000
vt 0.353553 12.790770 0.000000
vt -0.353553 13.430309 0.000000
vt 0.353553 13.501368 0.000000
vt -0.353553 14.176437 0.000000
vt -0.000000 -14.959965 0.000000
vt -2.000000 -14.959965 0.000000
vt -0.000000 -15.707963 0.000000
vt -2.000000 -15.707963 0.000000
vt -0.000000 15.707963 0.000000
vt -2.000000 15.707963 0.000000
vt -0.000000 14.959965 0.000000
vt -2.000000 14.959965 0.000000
vt -0.000000 14.211967 0.000000
vt -2.000000 14.211967 0.000000
vt -0.000000 13.463969 0.000000
vt -2.000000 13.463969 0.000000
vt -0.000000 12.715970 0.000000
vt -2.000000 12.715970 0.000000
vt -0.000000 11.967972 0.000000
vt -2.000000 11.967972 0.000000
vt -0.000000 11.219974 0.000000
vt -2.000000 11.219974 0.000000
vt -0.000000 10.471976 0.000000
vt -2.000000 10.471976 0.000000
vt -0.000000 9.723977 0.000000
vt -2.000000 9.723977 0.000000
vt -0.000000 8.975979 0.000000
vt -2.000000 8.975979 0.000000
vt -0.000000 8.227981 0.000000
vt -2.000000 8.227981 0.000000
vt -0.000000 7.479983 0.000000
vt -2.000000 7.479983 0.000000
vt -0.000000 6.731984 0.000000
vt -2.000000 6.731984 0.000000
vt -0.000000 5.983986 0.000000
vt -2.000000 5.983986 0.000000
vt -0.000000 5.235988 0.000000
vt -2.000000 5.235988 0.000000
vt -0.000000 4.487990 0.000000
vt -2.000000 4.487990 0.000000
vt -0.000000 3.739991 0.000000
vt -2.000000 3.739991 0.000000
vt -0.000000 2.991993 0.000000
vt -2.000000 2.991993 0.000000
vt -0.000000 2.243995 0.000000
vt -2.000000 2.243995 0.000000
vt -0.000000 1.495997 0.000000
vt -2.000000 1.495997 0.000000
vt -0.000000 0.747998 0.000000
vt -2.000000 0.747998 0.000000
vt -0.000000 0.000000 0.000000
vt -2.000000 0.000000 0.000000
vt -0.000000 -0.747998 0.000000
vt -2.000000 -0.747998 0.000000
vt -0.000000 -1.495997 0.000000
vt -2.000000 -1.495997 0.000000
vt -0.000000 -2.243995 0.000000
vt -2.000000 -2.243995 0.000000
vt -0.000000 -2.991993 0.000000
vt -2.000000 -2.991993 0.000000
vt -0.000000 -3.739991 0.000000
vt -2.000000 -3.739991 0.000000
vt -0.000000 -4.487990 0.000000
vt -2.000000 -4.487990 0.000000
vt -0.000000 -5.235988 0.000000
vt -2.000000 -5.235988 0.000000
vt -0.000000 -5.983986 0.000000
vt -2.000000 -5.983986 0.000000
vt -0.000000 -6.731984 0.000000
vt -2.000000 -6.731984 0.000000
vt -0.000000 -7.479983 0.000000
vt -2.000000 -7.479983 0.000000
vt -0.000000 -8.227981 0.000000
vt -2.000000 -8.227981 0.000000
vt -0.000000 -8.975979 0.000000
vt -2.000000 -8.975979 0.000000
vt -0.000000 -9.723977 0.000000
vt -2.000000 -9.723977 0.000000
vt -0.000000 -10.471976 0.000000
vt -2.000000 -10.471976 0.000000
vt -0.000000 -11.219974 0.000000
vt -2.000000 -11.219974 0.000000
vt -0.000000 -11.967972 0.000000
vt -2.000000 -11.967972 0.000000
vt -0.000000 -12.715970 0.000000
vt -2.000000 -12.715970 0.000000
vt -0.000000 -13.463969 0.000000
vt -2.000000 -13.463969 0.000000
vt -0.000000 -14.211967 0.000000
vt -2.000000 -14.211967 0.000000
vt 0.839035 1.455923 0.000000
vt 0.676520 1.263576 0.000000
vt 4.500000 0.000000 0.000000
vt 1.500000 -2.000000 0.000000
vt 4.444598 -0.703955 0.000000
vt 4.279754 -1.390576 0.000000
vt 4.009529 -2.042957 0.000000
vt 3.640576 -2.645034 0.000000
vt 3.181981 -3.181981 0.000000
vt 2.645034 -3.640576 0.000000
vt 2.042957 -4.009529 0.000000
vt 1.390576 -4.279754 0.000000
vt 0.703955 -4.444598 0.000000
vt 0.000000 -4.500000 0.000000
vt -1.500000 -2.000000 0.000000
vt -0.703955 -4.444598 0.000000
vt -1.390576 -4.279754 0.000000
vt -2.042957 -4.009529 0.000000
vt -2.645034 -3.640576 0.000000
vt -3.181981 -3.181981 0.000000
vt -3.640576 -2.645034 0.000000
vt -4.009529 -2.042957 0.000000
vt -4.279754 -1.390576 0.000000
vt -4.444598 -0.703955 0.000000
vt -4.500000 0.000000 0.000000
vt -0.676520 1.263576 0.000000
vt -0.839035 1.455923 0.000000
vt -0.948348 1.682769 0.000000
vt -4.279754 1.390576 0.000000
vt -4.444598 0.703955 0.000000
vt -4.009529 2.042957 0.000000
vt -0.997528 1.929730 0.000000
vt -3.640576 2.645034 0.000000
vt -3.181981 3.181981 0.000000
vt -0.983456 2.181147 0.000000
vt -2.645034 3.640576 0.000000
vt -0.907024 2.421078 0.000000
vt -2.042957 4.009529 0.000000
vt -0.773080 2.634309 0.000000
vt -1.390576 4.279754 0.000000
vt -0.590115 2.807319 0.000000
vt -0.369732 2.929138 0.000000
vt -0.703955 4.444598 0.000000
vt -0.125905 2.992042 0.000000
vt 0.000000 4.500000 0.000000
vt 0.125905 2.992042 0.000000
vt 0.703955 4.444598 0.000000
vt 0.369732 2.929138 0.000000
vt 1.390576 4.279754 0.000000
vt 0.590115 2.807319 0.000000
vt 0.773080 2.634309 0.000000
vt 2.042957 4.009529 0.000000
vt 0.907024 2.421078 0.000000
vt 2.645034 3.640576 0.000000
vt 0.983456 2.181147 0.000000
vt 3.181981 3.181981 0.000000
vt 0.997528 1.929730 0.000000
vt 3.640576 2.645034 0.000000
vt 4.009529 2.042957 0.000000
vt 0.948348 1.682769 0.000000
vt 4.279754 1.390576 0.000000
vt 4.444598 0.703955 0.000000
vt 2.500000 -1.486054 0.000000
vt 0.000000 -1.486054 0.000000
vt 2.500000 -1.738535 0.000000
vt 0.000000 -1.738535 0.000000
vt 2.500000 -1.991015 0.000000
vt 0.000000 -1.991015 0.000000
vt 2.500000 -2.243496 0.000000
vt 0.000000 -2.243496 0.000000
vt 2.500000 -2.495977 0.000000
vt 0.000000 -2.495977 0.000000
vt 2.500000 -2.748457 0.000000
vt 0.000000 -2.748457 0.000000
vt 2.500000 -3.000938 0.000000
vt -0.000000 -3.000938 0.000000
vt 2.500000 -3.253418 0.000000
vt 0.000000 -3.253418 0.000000
vt 2.500000 -3.505899 0.000000
vt 0.000000 -3.505899 0.000000
vt 2.500000 -3.758379 0.000000
vt 0.000000 -3.758379 0.000000
vt 2.500000 -4.010860 0.000000
vt -0.000000 -4.010860 0.000000
vt 2.500000 -4.263341 0.000000
vt 0.000000 -4.263341 0.000000
vt 2.500000 -4.515821 0.000000
vt 0.000000 -4.515821 0.000000
vt 2.500000 -4.768302 0.000000
vt 0.000000 -4.768302 0.000000
vt 2.500000 -5.020782 0.000000
vt -0.000000 -5.020782 0.000000
vt 2.500000 -5.273263 0.000000
vt -0.000000 -5.273263 0.000000
vt 2.500000 -5.525744 0.000000
vt -0.000000 -5.525744 0.000000
vt 2.500000 -5.778224 0.000000
vt 0.000000 -5.778224 0.000000
vt 2.500000 -6.030705 0.000000
vt 0.000000 -6.030705 0.000000
vt 2.500000 -6.283185 0.000000
vt 0.000000 -6.283185 0.000000
vt 0.000000 0.000000 0.000000
vt 3.365865 0.000000 0.000000
vt 0.000000 2.500000 0.000000
vt 3.365865 2.500000 0.000000
vt 0.000000 0.000000 0.000000
vt 3.000000 0.000000 0.000000
vt 0.000000 2.500000 0.000000
vt 3.000000 2.500000 0.000000
vt 0.000000 0.000000 0.000000
vt 3.365865 0.000000 0.000000
vt 0.000000 2.500000 0.000000
vt 3.365865 2.500000 0.000000
vt -0.676520 1.263576 0.000000
vt -0.839035 1.455923 0.000000
vt -1.500000 -2.000000 0.000000
vt -5.000000 0.000000 0.000000
vt -4.944154 -0.745211 0.000000
vt -4.944154 0.745211 0.000000
vt -0.948348 1.682769 0.000000
vt -4.777864 1.473776 0.000000
vt -4.504844 2.169419 0.000000
vt -0.997528 1.929730 0.000000
vt -4.131194 2.816600 0.000000
vt -3.665259 3.400864 0.000000
vt -0.983456 2.181147 0.000000
vt -3.117449 3.909157 0.000000
vt -0.907024 2.421078 0.000000
vt -2.500000 4.330127 0.000000
vt -0.773080 2.634309 0.000000
vt -1.826705 4.654369 0.000000
vt -0.590115 2.807319 0.000000
vt -1.112605 4.874640 0.000000
vt -0.369732 2.929138 0.000000
vt -0.373650 4.986019 0.000000
vt -0.125905 2.992042 0.000000
vt 0.125905 2.992042 0.000000
vt 0.373650 4.986019 0.000000
vt 0.369732 2.929138 0.000000
vt 1.112605 4.874640 0.000000
vt 0.590115 2.807319 0.000000
vt 1.826705 4.654369 0.000000
vt 0.773080 2.634309 0.000000
vt 2.500000 4.330127 0.000000
vt 0.907024 2.421078 0.000000
vt 3.117449 3.909157 0.000000
vt 0.983456 2.181147 0.000000
vt 3.665259 3.400864 0.000000
vt 0.997528 1.929730 0.000000
vt 4.131194 2.816600 0.000000
vt 4.504844 2.169419 0.000000
vt 0.948348 1.682769 0.000000
vt 4.777864 1.473776 0.000000
vt 4.944154 0.745211 0.000000
vt 0.839035 1.455923 0.000000
vt 5.000000 -0.000000 0.000000
vt 1.500000 -2.000000 0.000000
vt 4.944154 -0.745211 0.000000
vt 4.777864 -1.473776 0.000000
vt 4.504844 -2.169419 0.000000
vt 4.131194 -2.816600 0.000000
vt 3.665259 -3.400864 0.000000
vt 3.117449 -3.909157 0.000000
vt 2.500000 -4.330127 0.000000
vt 1.826705 -4.654369 0.000000
vt 1.112605 -4.874640 0.000000
vt 0.373650 -4.986019 0.000000
vt -0.373650 -4.986019 0.000000
vt -1.112605 -4.874640 0.000000
vt -1.826705 -4.654369 0.000000
vt -2.500000 -4.330127 0.000000
vt -3.117449 -3.909157 0.000000
vt -3.665259 -3.400864 0.000000
vt -4.131194 -2.816600 0.000000
vt -4.504844 -2.169419 0.000000
vt -4.777864 -1.473776 0.000000
vt 0.676520 1.263576 0.000000
vn -0.699209 0.105389 0.707107
vn -0.707107 0.000000 0.707107
vn -0.707107 0.000000 0.707107
vn -0.699209 -0.105389 0.707107
vn -0.698401 -0.110616 0.707107
vn -0.675692 -0.208423 0.707107
vn -0.672499 -0.218508 0.707107
vn -0.637081 -0.306802 0.707107
vn -0.630037 -0.321020 0.707107
vn -0.584239 -0.398327 0.707107
vn -0.572061 -0.415627 0.707107
vn -0.518346 -0.480955 0.707107
vn -0.500000 -0.500000 0.707107
vn -0.440874 -0.552838 0.707107
vn -0.415627 -0.572061 0.707107
vn -0.353553 -0.612372 0.707107
vn -0.321020 -0.630037 0.707107
vn -0.258335 -0.658227 0.707107
vn -0.218508 -0.672499 0.707107
vn -0.157346 -0.689378 0.707107
vn -0.110616 -0.698401 0.707107
vn -0.052842 -0.705130 0.707107
vn 0.000000 -0.707107 0.707107
vn 0.052842 -0.705130 0.707107
vn 0.110616 -0.698401 0.707107
vn 0.157346 -0.689378 0.707107
vn 0.218508 -0.672499 0.707107
vn 0.258335 -0.658227 0.707107
vn 0.321020 -0.630037 0.707107
vn 0.353553 -0.612372 0.707107
vn 0.415627 -0.572061 0.707107
vn 0.440874 -0.552838 0.707107
vn 0.500000 -0.500000 0.707107
vn 0.518346 -0.480955 0.707107
vn 0.572061 -0.415627 0.707107
vn 0.584239 -0.398327 0.707107
vn 0.630037 -0.321020 0.707107
vn 0.637081 -0.306802 0.707107
vn 0.672499 -0.218508 0.707107
vn 0.675692 -0.208423 0.707107
vn 0.698401 -0.110616 0.707107
vn 0.699209 -0.105389 0.707107
vn 0.707107 -0.000000 0.707107
vn 0.707107 -0.000000 0.707107
vn 0.699209 0.105389 0.707107
vn 0.698401 0.110616 0.707107
vn 0.675692 0.208423 0.707107
vn 0.672499 0.218508 0.707107
vn 0.637081 0.306802 0.707107
vn 0.630037 0.321020 0.707107
vn 0.584239 0.398327 0.707107
vn 0.572061 0.415627 0.707107
vn 0.518346 0.480955 0.707107
vn 0.500000 0.500000 0.707107
vn 0.440874 0.552838 0.707107
vn 0.415627 0.572061 0.707107
vn 0.353553 0.612372 0.707107
vn 0.321020 0.630037 0.707107
vn 0.258335 0.658227 0.707107
vn 0.218508 0.672499 0.707107
vn 0.157346 0.689378 0.707107
vn 0.110616 0.698401 0.707107
vn 0.052842 0.705130 0.707107
vn 0.000000 0.707107 0.707107
vn -0.052842 0.705130 0.707107
vn -0.110616 0.698401 0.707107
vn -0.157346 0.689378 0.707107
vn -0.218508 0.672499 0.707107
vn -0.258335 0.658227 0.707107
vn -0.321020 0.630037 0.707107
vn -0.353553 0.612372 0.707107
vn -0.415627 0.572061 0.707107
vn -0.440874 0.552838 0.707107
vn -0.500000 0.500000 0.707107
vn -0.518346 0.480955 0.707107
vn -0.572061 0.415627 0.707107
vn -0.584239 0.398327 0.707107
vn -0.630037 0.321020 0.707107
vn -0.637081 0.306802 0.707107
vn -0.672499 0.218508 0.707107
vn -0.675692 0.208423 0.707107
vn -0.698401 0.110616 0.707107
vn -0.988831 -0.149042 0.000000
vn -0.988831 -0.149042 0.000000
vn -1.000000 -0.000000 0.000000
vn -1.000000 -0.000000 0.000000
vn -0.988831 0.149042 -0.000000
vn -0.988831 0.149042 -0.000000
vn -0.955573 0.294755 -0.000000
vn -0.955573 0.294755 -0.000000
vn -0.900969 0.433884 -0.000000
vn -0.900969 0.433884 -0.000000
vn -0.826239 0.563320 -0.000000
vn -0.826239 0.563320 -0.000000
vn -0.733052 0.680173 -0.000000
vn -0.733052 0.680173 -0.000000
vn -0.623490 0.781831 -0.000000
vn -0.623490 0.781831 -0.000000
vn -0.500000 0.866025 -0.000000
vn -0.500000 0.866025 -0.000000
vn -0.365341 0.930874 -0.000000
vn -0.365341 0.930874 -0.000000
vn -0.222521 0.974928 -0.000000
vn -0.222521 0.974928 -0.000000
vn -0.074730 0.997204 -0.000000
vn -0.074730 0.997204 -0.000000
vn 0.074730 0.997204 -0.000000
vn 0.074730 0.997204 -0.000000
vn 0.222521 0.974928 -0.000000
vn 0.222521 0.974928 -0.000000
vn 0.365341 0.930874 -0.000000
vn 0.365341 0.930874 -0.000000
vn 0.500000 0.866025 -0.000000
vn 0.500000 0.866025 -0.000000
vn 0.623490 0.781831 -0.000000
vn 0.623490 0.781831 -0.000000
vn 0.733052 0.680173 -0.000000
vn 0.733052 0.680173 -0.000000
vn 0.826239 0.563320 -0.000000
vn 0.826239 0.563320 -0.000000
vn 0.900969 0.433884 -0.000000
vn 0.900969 0.433884 -0.000000
vn 0.955573 0.294755 -0.000000
vn 0.955573 0.294755 -0.000000
vn 0.988831 0.149042 -0.000000
vn 0.988831 0.149042 -0.000000
vn 1.000000 -0.000000 -0.000000
vn 1.000000 -0.000000 -0.000000
vn 0.988831 -0.149042 -0.000000
vn 0.988831 -0.149042 -0.000000
vn 0.955573 -0.294755 -0.000000
vn 0.955573 -0.294755 -0.000000
vn 0.900969 -0.433884 -0.000000
vn 0.900969 -0.433884 -0.000000
vn 0.826239 -0.563320 -0.000000
vn 0.826239 -0.563320 -0.000000
vn 0.733052 -0.680173 -0.000000
vn 0.733052 -0.680173 -0.000000
vn 0.623490 -0.781831 -0.000000
vn 0.623490 -0.781831 -0.000000
vn 0.500000 -0.866025 -0.000000
vn 0.500000 -0.866025 -0.000000
vn 0.365341 -0.930874 -0.000000
vn 0.365341 -0.930874 -0.000000
vn 0.222521 -0.974928 -0.000000
vn 0.222521 -0.974928 -0.000000
vn 0.074730 -0.997204 -0.000000
vn 0.074730 -0.997204 -0.000000
vn -0.074730 -0.997204 0.000000
vn -0.074730 -0.997204 0.000000
vn -0.222521 -0.974928 0.000000
vn -0.222521 -0.974928 0.000000
vn -0.365341 -0.930874 0.000000
vn -0.365341 -0.930874 0.000000
vn -0.500000 -0.866025 0.000000
vn -0.500000 -0.866025 0.000000
vn -0.623490 -0.781831 0.000000
vn -0.623490 -0.781831 0.000000
vn -0.733052 -0.680173 0.000000
vn -0.733052 -0.680173 0.000000
vn -0.826239 -0.563320 0.000000
vn -0.826239 -0.563320 0.000000
vn -0.900969 -0.433884 0.000000
vn -0.900969 -0.433884 0.000000
vn -0.955573 -0.294755 0.000000
vn -0.955573 -0.294755 0.000000
vn 0.000000 0.000000 1.000000
vn 0.000000 0.000000 1.000000
vn 0.000000 0.000000 1.000000
vn 0.000000 0.000000 1.000000
vn 0.000000 0.000000 1.000000
vn 0.000000 0.000000 1.000000
vn 0.000000 0.000000 1.000000
vn 0.000000 0.000000 1.000000
vn 0.000000 0.000000 1.000000
vn 0.000000 0.000000 1.000000
vn 0.000000 0.000000 1.000000
vn 0.000000 0.000000 1.000000
vn 0.000000 0.000000 1.000000
vn 0.000000 0.000000 1.000000
vn 0.000000 0.000000 1.000000
vn 0.000000 0.000000 1.000000
vn 0.000000 0.000000 1.000000
vn 0.000000 0.000000 1.000000
vn 0.000000 0.000000 1.000000
vn 0.000000 0.000000 1.000000
vn 0.000000 0.000000 1.000000
vn 0.000000 0.000000 1.000000
vn 0.000000 0.000000 1.000000
vn 0.000000 0.000000 1.000000
vn 0.000000 0.000000 1.000000
vn 0.000000 0.000000 1.000000
vn 0.000000 0.000000 1.000000
vn 0.000000 0.000000 1.000000
vn 0.000000 0.000000 1.000000
vn 0.000000 0.000000 1.000000
vn 0.000000 0.000000 1.000000
vn 0.000000 0.000000 1.000000
vn 0.000000 0.000000 1.000000
vn 0.000000 0.000000 1.000000
vn 0.000000 0.000000 1.000000
vn 0.000000 0.000000 1.000000
vn 0.000000 0.000000 1.000000
vn 0.000000 0.000000 1.000000
vn 0.000000 0.000000 1.000000
vn 0.000000 0.000000 1.000000
vn 0.000000 0.000000 1.000000
vn 0.000000 0.000000 1.000000
vn 0.000000 0.000000 1.000000
vn 0.000000 0.000000 1.000000
vn 0.000000 0.000000 1.000000
vn 0.000000 0.000000 1.000000
vn 0.000000 0.000000 1.000000
vn 0.000000 0.000000 1.000000
vn 0.000000 0.000000 1.000000
vn 0.000000 0.000000 1.000000
vn 0.000000 0.000000 1.000000
vn 0.000000 0.000000 1.000000
vn 0.000000 0.000000 1.000000
vn 0.000000 0.000000 1.000000
vn 0.000000 0.000000 1.000000
vn 0.000000 0.000000 1.000000
vn 0.000000 0.000000 1.000000
vn 0.000000 0.000000 1.000000
vn 0.000000 0.000000 1.000000
vn 0.000000 0.000000 1.000000
vn 0.000000 0.000000 1.000000
vn 0.000000 0.000000 1.000000
vn 0.676520 0.736424 -0.000000
vn 0.676520 0.736424 -0.000000
vn 0.839035 0.544077 -0.000000
vn 0.839035 0.544077 -0.000000
vn 0.948348 0.317231 -0.000000
vn 0.948348 0.317231 -0.000000
vn 0.997528 0.070270 -0.000000
vn 0.997528 0.070270 -0.000000
vn 0.983456 -0.181147 0.000000
vn 0.983456 -0.181147 0.000000
vn 0.907024 -0.421078 0.000000
vn 0.907024 -0.421078 0.000000
vn 0.773080 -0.634309 0.000000
vn 0.773080 -0.634309 0.000000
vn 0.590115 -0.807319 0.000000
vn 0.590115 -0.807319 0.000000
vn 0.369732 -0.929138 0.000000
vn 0.369732 -0.929138 0.000000
vn 0.125905 -0.992042 0.000000
vn 0.125905 -0.992042 0.000000
vn -0.125905 -0.992042 0.000000
vn -0.125905 -0.992042 0.000000
vn -0.369732 -0.929138 0.000000
vn -0.369732 -0.929138 0.000000
vn -0.590115 -0.807319 0.000000
vn -0.590115 -0.807319 0.000000
vn -0.773080 -0.634309 0.000000
vn -0.773080 -0.634309 0.000000
vn -0.907024 -0.421078 0.000000
vn -0.907024 -0.421078 0.000000
vn -0.983456 -0.181147 0.000000
vn -0.983456 -0.181147 0.000000
vn -0.997528 0.070270 0.000000
vn -0.997528 0.070270 0.000000
vn -0.948348 0.317231 0.000000
vn -0.948348 0.317231 0.000000
vn -0.839035 0.544077 0.000000
vn -0.839035 0.544077 0.000000
vn -0.676520 0.736424 0.000000
vn -0.676520 0.736424 0.000000
vn 0.969610 -0.244656 0.000000
vn 0.969610 -0.244656 0.000000
vn 0.969610 -0.244656 0.000000
vn 0.969610 -0.244656 0.000000
vn 0.000000 1.000000 -0.000000
vn 0.000000 1.000000 -0.000000
vn 0.000000 1.000000 -0.000000
vn 0.000000 1.000000 -0.000000
vn -0.969610 -0.244656 0.000000
vn -0.969610 -0.244656 0.000000
vn -0.969610 -0.244656 0.000000
vn -0.969610 -0.244656 0.000000
vn -0.000000 -0.000000 -1.000000
vn -0.000000 -0.000000 -1.000000
vn -0.000000 -0.000000 -1.000000
vn -0.000000 -0.000000 -1.000000
vn -0.000000 -0.000000 -1.000000
vn -0.000000 -0.000000 -1.000000
vn -0.000000 -0.000000 -1.000000
vn -0.000000 -0.000000 -1.000000
vn -0.000000 -0.000000 -1.000000
vn -0.000000 -0.000000 -1.000000
vn -0.000000 -0.000000 -1.000000
vn -0.000000 -0.000000 -1.000000
vn -0.000000 -0.000000 -1.000000
vn -0.000000 -0.000000 -1.000000
vn -0.000000 -0.000000 -1.000000
vn -0.000000 -0.000000 -1.000000
vn -0.000000 -0.000000 -1.000000
vn -0.000000 -0.000000 -1.000000
vn -0.000000 -0.000000 -1.000000
vn -0.000000 -0.000000 -1.000000
vn -0.000000 -0.000000 -1.000000
vn -0.000000 -0.000000 -1.000000
vn -0.000000 -0.000000 -1.000000
vn -0.000000 -0.000000 -1.000000
vn -0.000000 -0.000000 -1.000000
vn -0.000000 -0.000000 -1.000000
vn -0.000000 -0.000000 -1.000000
vn -0.000000 -0.000000 -1.000000
vn -0.000000 -0.000000 -1.000000
vn -0.000000 -0.000000 -1.000000
vn -0.000000 -0.000000 -1.000000
vn -0.000000 -0.000000 -1.000000
vn -0.000000 -0.000000 -1.000000
vn -0.000000 -0.000000 -1.000000
vn -0.000000 -0.000000 -1.000000
vn -0.000000 -0.000000 -1.000000
vn -0.000000 -0.000000 -1.000000
vn -0.000000 -0.000000 -1.000000
vn -0.000000 -0.000000 -1.000000
vn -0.000000 -0.000000 -1.000000
vn -0.000000 -0.000000 -1.000000
vn -0.000000 -0.000000 -1.000000
vn -0.000000 -0.000000 -1.000000
vn -0.000000 -0.000000 -1.000000
vn -0.000000 -0.000000 -1.000000
vn -0.000000 -0.000000 -1.000000
vn -0.000000 -0.000000 -1.000000
vn -0.000000 -0.000000 -1.000000
vn -0.000000 -0.000000 -1.000000
vn -0.000000 -0.000000 -1.000000
vn -0.000000 -0.000000 -1.000000
vn -0.000000 -0.000000 -1.000000
vn -0.000000 -0.000000 -1.000000
vn -0.000000 -0.000000 -1.000000
vn -0.000000 -0.000000 -1.000000
vn -0.000000 -0.000000 -1.000000
vn -0.000000 -0.000000 -1.000000
vn -0.000000 -0.000000 -1.000000
vn -0.000000 -0.000000 -1.000000
vn -0.000000 -0.000000 -1.000000
vn -0.000000 -0.000000 -1.000000
vn -0.000000 -0.000000 -1.000000
vn -0.000000 -0.000000 -1.000000
vn -0.000000 -0.000000 -1.000000
usemtl Steel_-_Satin
f 42/1/1 1/2/2 43/3/3
f 43/4/3 1/5/2 2/6/4
f 43/4/3 2/6/4 82/7/5
f 82/7/5 2/6/4 3/8/6
f 82/7/5 3/8/6 81/9/7
f 81/9/7 3/8/6 4/10/8
f 81/9/7 4/10/8 80/11/9
f 80/11/9 4/10/8 5/12/10
f 80/11/9 5/12/10 79/13/11
f 79/13/11 5/12/10 6/14/12
f 79/13/11 6/14/12 78/15/13
f 78/15/13 6/14/12 7/16/14
f 78/15/13 7/16/14 77/17/15
f 77/17/15 7/16/14 8/18/16
f 77/17/15 8/18/16 76/19/17
f 76/19/17 8/18/16 9/20/18
f 76/19/17 9/20/18 75/21/19
f 75/21/19 9/20/18 10/22/20
f 75/21/19 10/22/20 74/23/21
f 74/23/21 10/22/20 11/24/22
f 74/23/21 11/24/22 73/25/23
f 73/25/23 11/24/22 12/26/24
f 73/25/23 12/26/24 72/27/25
f 72/27/25 12/26/24 13/28/26
f 72/27/25 13/28/26 71/29/27
f 71/29/27 13/28/26 14/30/28
f 71/29/27 14/30/28 70/31/29
f 70/31/29 14/30/28 15/32/30
f 70/31/29 15/32/30 69/33/31
f 69/33/31 15/32/30 16/34/32
f 69/33/31 16/34/32 68/35/33
f 68/35/33 16/34/32 17/36/34
f 68/35/33 17/36/34 67/37/35
f 67/37/35 17/36/34 18/38/36
f 67/37/35 18/38/36 66/39/37
f 66/39/37 18/38/36 19/40/38
f 66/39/37 19/40/38 65/41/39
f 65/41/39 19/40/38 20/42/40
f 65/41/39 20/42/40 64/43/41
f 64/43/41 20/42/40 21/44/42
f 64/43/41 21/44/42 63/45/43
f 63/45/43 21/44/42 22/46/44
f 63/45/43 22/46/44 23/47/45
f 63/45/43 23/47/45 62/48/46
f 62/48/46 23/47/45 24/49/47
f 62/48/46 24/49/47 61/50/48
f 61/50/48 24/49/47 25/51/49
f 61/50/48 25/51/49 60/52/50
f 60/52/50 25/51/49 26/53/51
f 60/52/50 26/53/51 59/54/52
f 59/54/52 26/53/51 27/55/53
f 59/54/52 27/55/53 58/56/54
f 58/56/54 27/55/53 28/57/55
f 58/56/54 28/57/55 57/58/56
f 57/58/56 28/57/55 29/59/57
f 57/58/56 29/59/57 56/60/58
f 56/60/58 29/59/57 30/61/59
f 56/60/58 30/61/59 55/62/60
f 55/62/60 30/61/59 31/63/61
f 55/62/60 31/63/61 54/64/62
f 54/64/62 31/63/61 32/65/63
f 54/64/62 32/65/63 53/66/64
f 53/66/64 32/65/63 33/67/65
f 53/66/64 33/67/65 52/68/66
f 52/68/66 33/67/65 34/69/67
f 52/68/66 34/69/67 51/70/68
f 51/70/68 34/69/67 35/71/69
f 51/70/68 35/71/69 50/72/70
f 50/72/70 35/71/69 36/73/71
f 50/72/70 36/73/71 49/74/72
f 49/74/72 36/73/71 37/75/73
f 49/74/72 37/75/73 48/76/74
f 48/76/74 37/75/73 38/77/75
f 48/76/74 38/77/75 47/78/76
f 47/78/76 38/77/75 39/79/77
f 47/78/76 39/79/77 46/80/78
f 46/80/78 39/79/77 40/81/79
f 46/80/78 40/81/79 45/82/80
f 45/82/80 40/81/79 41/83/81
f 45/82/80 41/83/81 44/84/82
f 44/84/82 41/83/81 42/1/1
f 44/84/82 42/1/1 43/3/3
f 84/85/83 2/86/84 83/87/85
f 83/87/85 2/86/84 1/88/86
f 83/89/85 1/90/86 124/91/87
f 124/91/87 1/90/86 42/92/88
f 124/91/87 42/92/88 123/93/89
f 123/93/89 42/92/88 41/94/90
f 123/93/89 41/94/90 122/95/91
f 122/95/91 41/94/90 40/96/92
f 122/95/91 40/96/92 121/97/93
f 121/97/93 40/96/92 39/98/94
f 121/97/93 39/98/94 120/99/95
f 120/99/95 39/98/94 38/100/96
f 120/99/95 38/100/96 119/101/97
f 119/101/97 38/100/96 37/102/98
f 119/101/97 37/102/98 118/103/99
f 118/103/99 37/102/98 36/104/100
f 118/103/99 36/104/100 117/105/101
f 117/105/101 36/104/100 35/106/102
f 117/105/101 35/106/102 116/107/103
f 116/107/103 35/106/102 34/108/104
f 116/107/103 34/108/104 115/109/105
f 115/109/105 34/108/104 33/110/106
f 115/109/105 33/110/106 114/111/107
f 114/111/107 33/110/106 32/112/108
f 114/111/107 32/112/108 113/113/109
f 113/113/109 32/112/108 31/114/110
f 113/113/109 31/114/110 112/115/111
f 112/115/111 31/114/110 30/116/112
f 112/115/111 30/116/112 111/117/113
f 111/117/113 30/116/112 29/118/114
f 111/117/113 29/118/114 110/119/115
f 110/119/115 29/118/114 28/120/116
f 110/119/115 28/120/116 109/121/117
f 109/121/117 28/120/116 27/122/118
f 109/121/117 27/122/118 108/123/119
f 108/123/119 27/122/118 26/124/120
f 108/123/119 26/124/120 107/125/121
f 107/125/121 26/124/120 25/126/122
f 107/125/121 25/126/122 106/127/123
f 106/127/123 25/126/122 24/128/124
f 106/127/123 24/128/124 105/129/125
f 105/129/125 24/128/124 23/130/126
f 105/129/125 23/130/126 104/131/127
f 104/131/127 23/130/126 22/132/128
f 104/131/127 22/132/128 103/133/129
f 103/133/129 22/132/128 21/134/130
f 103/133/129 21/134/130 102/135/131
f 102/135/131 21/134/130 20/136/132
f 102/135/131 20/136/132 101/137/133
f 101/137/133 20/136/132 19/138/134
f 101/137/133 19/138/134 100/139/135
f 100/139/135 19/138/134 18/140/136
f 100/139/135 18/140/136 99/141/137
f 99/141/137 18/140/136 17/142/138
f 99/141/137 17/142/138 98/143/139
f 98/143/139 17/142/138 16/144/140
f 98/143/139 16/144/140 97/145/141
f 97/145/141 16/144/140 15/146/142
f 97/145/141 15/146/142 96/147/143
f 96/147/143 15/146/142 14/148/144
f 96/147/143 14/148/144 95/149/145
f 95/149/145 14/148/144 13/150/146
f 95/149/145 13/150/146 94/151/147
f 94/151/147 13/150/146 12/152/148
f 94/151/147 12/152/148 93/153/149
f 93/153/149 12/152/148 11/154/150
f 93/153/149 11/154/150 92/155/151
f 92/155/151 11/154/150 10/156/152
f 92/155/151 10/156/152 91/157/153
f 91/157/153 10/156/152 9/158/154
f 91/157/153 9/158/154 90/159/155
f 90/159/155 9/158/154 8/160/156
f 90/159/155 8/160/156 89/161/157
f 89/161/157 8/160/156 7/162/158
f 89/161/157 7/162/158 88/163/159
f 88/163/159 7/162/158 6/164/160
f 88/163/159 6/164/160 87/165/161
f 87/165/161 6/164/160 5/166/162
f 87/165/161 5/166/162 86/167/163
f 86/167/163 5/166/162 4/168/164
f 86/167/163 4/168/164 85/169/165
f 85/169/165 4/168/164 3/170/166
f 85/169/165 3/170/166 84/85/83
f 84/85/83 3/170/166 2/86/84
f 146/171/167 125/172/168 63/173/169
f 63/173/169 125/172/168 126/174/170
f 63/173/169 126/174/170 64/175/171
f 64/175/171 126/174/170 65/176/172
f 65/176/172 126/174/170 66/177/173
f 66/177/173 126/174/170 67/178/174
f 67/178/174 126/174/170 68/179/175
f 68/179/175 126/174/170 69/180/176
f 69/180/176 126/174/170 70/181/177
f 70/181/177 126/174/170 71/182/178
f 71/182/178 126/174/170 72/183/179
f 72/183/179 126/174/170 73/184/180
f 73/184/180 126/174/170 127/185/181
f 73/184/180 127/185/181 74/186/182
f 74/186/182 127/185/181 75/187/183
f 75/187/183 127/185/181 76/188/184
f 76/188/184 127/185/181 77/189/185
f 77/189/185 127/185/181 78/190/186
f 78/190/186 127/185/181 79/191/187
f 79/191/187 127/185/181 80/192/188
f 80/192/188 127/185/181 81/193/189
f 81/193/189 127/185/181 82/194/190
f 82/194/190 127/185/181 43/195/191
f 43/195/191 127/185/181 128/196/192
f 43/195/191 128/196/192 129/197/193
f 130/198/194 45/199/195 129/197/193
f 129/197/193 45/199/195 44/200/196
f 129/197/193 44/200/196 43/195/191
f 45/199/195 130/198/194 46/201/197
f 46/201/197 130/198/194 131/202/198
f 46/201/197 131/202/198 47/203/199
f 47/203/199 131/202/198 48/204/200
f 48/204/200 131/202/198 132/205/201
f 48/204/200 132/205/201 49/206/202
f 49/206/202 132/205/201 133/207/203
f 49/206/202 133/207/203 50/208/204
f 50/208/204 133/207/203 134/209/205
f 50/208/204 134/209/205 51/210/206
f 51/210/206 134/209/205 135/211/207
f 51/210/206 135/211/207 136/212/208
f 51/210/206 136/212/208 52/213/209
f 52/213/209 136/212/208 137/214/210
f 52/213/209 137/214/210 53/215/211
f 53/215/211 137/214/210 138/216/212
f 53/215/211 138/216/212 54/217/213
f 54/217/213 138/216/212 139/218/214
f 54/217/213 139/218/214 55/219/215
f 55/219/215 139/218/214 140/220/216
f 55/219/215 140/220/216 141/221/217
f 55/219/215 141/221/217 56/222/218
f 56/222/218 141/221/217 142/223/219
f 56/222/218 142/223/219 57/224/220
f 57/224/220 142/223/219 143/225/221
f 57/224/220 143/225/221 58/226/222
f 58/226/222 143/225/221 144/227/223
f 58/226/222 144/227/223 59/228/224
f 59/228/224 144/227/223 60/229/225
f 60/229/225 144/227/223 145/230/226
f 60/229/225 145/230/226 61/231/227
f 61/231/227 145/230/226 146/171/167
f 61/231/227 146/171/167 62/232/228
f 62/232/228 146/171/167 63/173/169
f 128/233/229 147/234/230 129/235/231
f 129/235/231 147/234/230 148/236/232
f 129/235/231 148/236/232 130/237/233
f 130/237/233 148/236/232 149/238/234
f 130/237/233 149/238/234 131/239/235
f 131/239/235 149/238/234 150/240/236
f 131/239/235 150/240/236 132/241/237
f 132/241/237 150/240/236 151/242/238
f 132/241/237 151/242/238 133/243/239
f 133/243/239 151/242/238 152/244/240
f 133/243/239 152/244/240 134/245/241
f 134/245/241 152/244/240 153/246/242
f 134/245/241 153/246/242 135/247/243
f 135/247/243 153/246/242 154/248/244
f 135/247/243 154/248/244 136/249/245
f 136/249/245 154/248/244 155/250/246
f 136/249/245 155/250/246 137/251/247
f 137/251/247 155/250/246 156/252/248
f 137/251/247 156/252/248 138/253/249
f 138/253/249 156/252/248 157/254/250
f 138/253/249 157/254/250 139/255/251
f 139/255/251 157/254/250 158/256/252
f 139/255/251 158/256/252 140/257/253
f 140/257/253 158/256/252 159/258/254
f 140/257/253 159/258/254 141/259/255
f 141/259/255 159/258/254 160/260/256
f 141/259/255 160/260/256 142/261/257
f 142/261/257 160/260/256 161/262/258
f 142/261/257 161/262/258 143/263/259
f 143/263/259 161/262/258 162/264/260
f 143/263/259 162/264/260 144/265/261
f 144/265/261 162/264/260 163/266/262
f 144/265/261 163/266/262 145/267/263
f 145/267/263 163/266/262 164/268/264
f 145/267/263 164/268/264 146/269/265
f 146/269/265 164/268/264 165/270/266
f 146/269/265 165/270/266 125/271/267
f 125/271/267 165/270/266 166/272/268
f 167/273/269 147/274/270 127/275/271
f 127/275/271 147/274/270 128/276/272
f 168/277/273 167/278/274 126/279/275
f 126/279/275 167/278/274 127/280/276
f 166/281/277 168/282/278 125/283/279
f 125/283/279 168/282/278 126/284/280
f 166/285/281 165/286/282 168/287/283
f 168/287/283 165/286/282 104/288/284
f 168/287/283 104/288/284 103/289/285
f 104/288/284 165/286/282 105/290/286
f 105/290/286 165/286/282 164/291/287
f 105/290/286 164/291/287 106/292/288
f 106/292/288 164/291/287 107/293/289
f 107/293/289 164/291/287 163/294/290
f 107/293/289 163/294/290 108/295/291
f 108/295/291 163/294/290 109/296/292
f 109/296/292 163/294/290 162/297/293
f 109/296/292 162/297/293 110/298/294
f 110/298/294 162/297/293 161/299/295
f 110/298/294 161/299/295 111/300/296
f 111/300/296 161/299/295 160/301/297
f 111/300/296 160/301/297 112/302/298
f 112/302/298 160/301/297 159/303/299
f 112/302/298 159/303/299 113/304/300
f 113/304/300 159/303/299 158/305/301
f 113/304/300 158/305/301 114/306/302
f 114/306/302 158/305/301 157/307/303
f 114/306/302 157/307/303 156/308/304
f 114/306/302 156/308/304 115/309/305
f 115/309/305 156/308/304 155/310/306
f 115/309/305 155/310/306 116/311/307
f 116/311/307 155/310/306 154/312/308
f 116/311/307 154/312/308 117/313/309
f 117/313/309 154/312/308 153/314/310
f 117/313/309 153/314/310 118/315/311
f 118/315/311 153/314/310 152/316/312
f 118/315/311 152/316/312 119/317/313
f 119/317/313 152/316/312 151/318/314
f 119/317/313 151/318/314 120/319/315
f 120/319/315 151/318/314 150/320/316
f 120/319/315 150/320/316 121/321/317
f 121/321/317 150/320/316 122/322/318
f 122/322/318 150/320/316 149/323/319
f 122/322/318 149/323/319 123/324/320
f 123/324/320 149/323/319 124/325/321
f 124/325/321 149/323/319 148/326/322
f 124/325/321 148/326/322 83/327/323
f 83/327/323 148/326/322 167/328/324
f 83/327/323 167/328/324 84/329/325
f 84/329/325 167/328/324 85/330/326
f 85/330/326 167/328/324 86/331/327
f 86/331/327 167/328/324 87/332/328
f 87/332/328 167/328/324 88/333/329
f 88/333/329 167/328/324 89/334/330
f 89/334/330 167/328/324 90/335/331
f 90/335/331 167/328/324 91/336/332
f 91/336/332 167/328/324 92/337/333
f 92/337/333 167/328/324 93/338/334
f 93/338/334 167/328/324 168/287/283
f 93/338/334 168/287/283 94/339/335
f 94/339/335 168/287/283 95/340/336
f 95/340/336 168/287/283 96/341/337
f 96/341/337 168/287/283 97/342/338
f 97/342/338 168/287/283 98/343/339
f 98/343/339 168/287/283 99/344/340
f 99/344/340 168/287/283 100/345/341
f 100/345/341 168/287/283 101/346/342
f 101/346/342 168/287/283 102/347/343
f 102/347/343 168/287/283 103/289/285
f 148/326/322 147/348/344 167/328/324
# 168 vertices
# 348 texture params
# 344 normals
# 336 facets

# 1 groups
