# Blender 4.3.2
# www.blender.org
mtllib unlockedKeylock.mtl
g keylock_keylock
v -5.000000 0.000000 2.000000
v -4.944154 -0.745211 2.000000
v -4.777864 -1.473776 2.000000
v -4.504844 -2.169419 2.000000
v -4.131194 -2.816600 2.000000
v -3.665259 -3.400864 2.000000
v -3.117449 -3.909157 2.000000
v -2.500000 -4.330127 2.000000
v -1.826705 -4.654369 2.000000
v -1.112605 -4.874640 2.000000
v -0.373650 -4.986019 2.000000
v 0.373650 -4.986019 2.000000
v 1.112605 -4.874640 2.000000
v 1.826705 -4.654369 2.000000
v 2.500000 -4.330127 2.000000
v 3.117449 -3.909157 2.000000
v 3.665259 -3.400864 2.000000
v 4.131194 -2.816600 2.000000
v 4.504844 -2.169419 2.000000
v 4.777864 -1.473776 2.000000
v 4.944154 -0.745211 2.000000
v 5.000000 0.000000 2.000000
v 4.944154 0.745211 2.000000
v 4.777864 1.473776 2.000000
v 4.504844 2.169419 2.000000
v 4.131194 2.816600 2.000000
v 3.665259 3.400864 2.000000
v 3.117449 3.909157 2.000000
v 2.500000 4.330127 2.000000
v 1.826705 4.654369 2.000000
v 1.112605 4.874640 2.000000
v 0.373650 4.986019 2.000000
v -0.373650 4.986019 2.000000
v -1.112605 4.874640 2.000000
v -1.826705 4.654369 2.000000
v -2.500000 4.330127 2.000000
v -3.117449 3.909157 2.000000
v -3.665259 3.400864 2.000000
v -4.131194 2.816600 2.000000
v -4.504844 2.169419 2.000000
v -4.777864 1.473776 2.000000
v -4.944154 0.745211 2.000000
v -4.500000 0.000000 2.500000
v -4.444598 0.703955 2.500000
v -4.279754 1.390576 2.500000
v -4.009529 2.042957 2.500000
v -3.640576 2.645034 2.500000
v -3.181981 3.181981 2.500000
v -2.645034 3.640576 2.500000
v -2.042957 4.009529 2.500000
v -1.390576 4.279754 2.500000
v -0.703955 4.444598 2.500000
v 0.000000 4.500000 2.500000
v 0.703955 4.444598 2.500000
v 1.390576 4.279754 2.500000
v 2.042957 4.009529 2.500000
v 2.645034 3.640576 2.500000
v 3.181981 3.181981 2.500000
v 3.640576 2.645034 2.500000
v 4.009529 2.042957 2.500000
v 4.279754 1.390576 2.500000
v 4.444598 0.703955 2.500000
v 4.500000 0.000000 2.500000
v 4.444598 -0.703955 2.500000
v 4.279754 -1.390576 2.500000
v 4.009529 -2.042957 2.500000
v 3.640576 -2.645034 2.500000
v 3.181981 -3.181981 2.500000
v 2.645034 -3.640576 2.500000
v 2.042957 -4.009529 2.500000
v 1.390576 -4.279754 2.500000
v 0.703955 -4.444598 2.500000
v 0.000000 -4.500000 2.500000
v -0.703955 -4.444598 2.500000
v -1.390576 -4.279754 2.500000
v -2.042957 -4.009529 2.500000
v -2.645034 -3.640576 2.500000
v -3.181981 -3.181981 2.500000
v -3.640576 -2.645034 2.500000
v -4.009529 -2.042957 2.500000
v -4.279754 -1.390576 2.500000
v -4.444598 -0.703955 2.500000
v -5.000000 0.000000 0.000000
v -4.944154 -0.745211 0.000000
v -4.777864 -1.473776 0.000000
v -4.504844 -2.169419 0.000000
v -4.131194 -2.816600 0.000000
v -3.665259 -3.400864 0.000000
v -3.117449 -3.909157 0.000000
v -2.500000 -4.330127 0.000000
v -1.826705 -4.654369 0.000000
v -1.112605 -4.874640 0.000000
v -0.373650 -4.986019 0.000000
v 0.373650 -4.986019 0.000000
v 1.112605 -4.874640 0.000000
v 1.826705 -4.654369 0.000000
v 2.500000 -4.330127 0.000000
v 3.117449 -3.909157 0.000000
v 3.665259 -3.400864 0.000000
v 4.131194 -2.816600 0.000000
v 4.504844 -2.169419 0.000000
v 4.777864 -1.473776 0.000000
v 4.944154 -0.745211 0.000000
v 5.000000 0.000000 0.000000
v 4.944154 0.745211 -0.000000
v 4.777864 1.473776 -0.000000
v 4.504844 2.169419 -0.000000
v 4.131194 2.816600 -0.000000
v 3.665259 3.400864 -0.000000
v 3.117449 3.909157 -0.000000
v 2.500000 4.330127 -0.000000
v 1.826705 4.654369 -0.000000
v 1.112605 4.874640 -0.000000
v 0.373650 4.986019 -0.000000
v -0.373650 4.986019 -0.000000
v -1.112605 4.874640 -0.000000
v -1.826705 4.654369 -0.000000
v -2.500000 4.330127 -0.000000
v -3.117449 3.909157 -0.000000
v -3.665259 3.400864 -0.000000
v -4.131194 2.816600 -0.000000
v -4.504844 2.169419 -0.000000
v -4.777864 1.473776 -0.000000
v -4.944154 0.745211 -0.000000
v 0.676520 1.263576 2.500000
v 1.500000 -2.000000 2.500000
v -1.500000 -2.000000 2.500000
v -0.676520 1.263576 2.500000
v -0.839035 1.455923 2.500000
v -0.948348 1.682769 2.500000
v -0.997528 1.929730 2.500000
v -0.983456 2.181147 2.500000
v -0.907024 2.421078 2.500000
v -0.773080 2.634309 2.500000
v -0.590115 2.807319 2.500000
v -0.369732 2.929138 2.500000
v -0.125905 2.992042 2.500000
v 0.125905 2.992042 2.500000
v 0.369732 2.929138 2.500000
v 0.590115 2.807319 2.500000
v 0.773080 2.634309 2.500000
v 0.907024 2.421078 2.500000
v 0.983456 2.181147 2.500000
v 0.997528 1.929730 2.500000
v 0.948348 1.682769 2.500000
v 0.839035 1.455923 2.500000
v -0.676520 1.263576 -0.000000
v -0.839035 1.455923 -0.000000
v -0.948348 1.682769 -0.000000
v -0.997528 1.929730 -0.000000
v -0.983456 2.181147 -0.000000
v -0.907024 2.421078 -0.000000
v -0.773080 2.634309 -0.000000
v -0.590115 2.807319 -0.000000
v -0.369732 2.929138 -0.000000
v -0.125905 2.992042 -0.000000
v 0.125905 2.992042 -0.000000
v 0.369732 2.929138 -0.000000
v 0.590115 2.807319 -0.000000
v 0.773080 2.634309 -0.000000
v 0.907024 2.421078 -0.000000
v 0.983456 2.181147 -0.000000
v 0.997528 1.929730 -0.000000
v 0.948348 1.682769 -0.000000
v 0.839035 1.455923 -0.000000
v 0.676520 1.263576 -0.000000
v -1.500000 -2.000000 0.000000
v 1.500000 -2.000000 0.000000
vn -0.6993 0.1052 0.7070
vn -0.7071 -0.0000 0.7071
vn -0.6993 -0.1052 0.7070
vn -0.6984 -0.1106 0.7072
vn -0.6757 -0.2084 0.7071
vn -0.6725 -0.2185 0.7071
vn -0.6371 -0.3068 0.7071
vn -0.6300 -0.3210 0.7071
vn -0.5842 -0.3983 0.7071
vn -0.5720 -0.4156 0.7071
vn -0.5184 -0.4810 0.7071
vn -0.5000 -0.5000 0.7071
vn -0.4409 -0.5529 0.7071
vn -0.4156 -0.5721 0.7071
vn -0.3536 -0.6124 0.7071
vn -0.3210 -0.6300 0.7071
vn -0.2583 -0.6582 0.7071
vn -0.2185 -0.6725 0.7071
vn -0.1573 -0.6894 0.7071
vn -0.1106 -0.6984 0.7071
vn -0.0528 -0.7051 0.7071
vn -0.0000 -0.7071 0.7071
vn 0.0528 -0.7051 0.7071
vn 0.1106 -0.6984 0.7071
vn 0.1573 -0.6894 0.7071
vn 0.2185 -0.6725 0.7071
vn 0.2583 -0.6582 0.7071
vn 0.3210 -0.6300 0.7071
vn 0.3536 -0.6124 0.7071
vn 0.4156 -0.5721 0.7071
vn 0.4409 -0.5528 0.7071
vn 0.5000 -0.5000 0.7071
vn 0.5184 -0.4810 0.7071
vn 0.5720 -0.4156 0.7071
vn 0.5843 -0.3983 0.7071
vn 0.6300 -0.3210 0.7071
vn 0.6371 -0.3068 0.7071
vn 0.6725 -0.2185 0.7071
vn 0.6757 -0.2084 0.7071
vn 0.6984 -0.1106 0.7072
vn 0.6993 -0.1052 0.7070
vn 0.7071 -0.0000 0.7071
vn 0.6993 0.1052 0.7070
vn 0.6984 0.1106 0.7072
vn 0.6757 0.2084 0.7071
vn 0.6725 0.2185 0.7071
vn 0.6371 0.3068 0.7071
vn 0.6300 0.3210 0.7071
vn 0.5842 0.3983 0.7071
vn 0.5720 0.4156 0.7071
vn 0.5184 0.4810 0.7071
vn 0.5000 0.5000 0.7071
vn 0.4409 0.5529 0.7071
vn 0.4156 0.5721 0.7071
vn 0.3536 0.6124 0.7071
vn 0.3210 0.6300 0.7071
vn 0.2583 0.6582 0.7071
vn 0.2185 0.6725 0.7071
vn 0.1573 0.6894 0.7071
vn 0.1106 0.6984 0.7071
vn 0.0528 0.7051 0.7071
vn -0.0000 0.7071 0.7071
vn -0.0528 0.7051 0.7071
vn -0.1106 0.6984 0.7071
vn -0.1573 0.6894 0.7071
vn -0.2185 0.6725 0.7071
vn -0.2583 0.6582 0.7071
vn -0.3210 0.6300 0.7071
vn -0.3536 0.6124 0.7071
vn -0.4156 0.5721 0.7071
vn -0.4409 0.5528 0.7071
vn -0.5000 0.5000 0.7071
vn -0.5184 0.4810 0.7071
vn -0.5720 0.4156 0.7071
vn -0.5843 0.3983 0.7071
vn -0.6300 0.3210 0.7071
vn -0.6371 0.3068 0.7071
vn -0.6725 0.2185 0.7071
vn -0.6757 0.2084 0.7071
vn -0.6984 0.1106 0.7072
vn -0.9888 -0.1490 -0.0000
vn -1.0000 -0.0000 -0.0000
vn -0.9888 0.1490 -0.0000
vn -0.9556 0.2948 -0.0000
vn -0.9010 0.4339 -0.0000
vn -0.8262 0.5633 -0.0000
vn -0.7331 0.6802 -0.0000
vn -0.6235 0.7818 -0.0000
vn -0.5000 0.8660 -0.0000
vn -0.3653 0.9309 -0.0000
vn -0.2225 0.9749 -0.0000
vn -0.0747 0.9972 -0.0000
vn 0.0747 0.9972 -0.0000
vn 0.2225 0.9749 -0.0000
vn 0.3653 0.9309 -0.0000
vn 0.5000 0.8660 -0.0000
vn 0.6235 0.7818 -0.0000
vn 0.7331 0.6802 -0.0000
vn 0.8262 0.5633 -0.0000
vn 0.9010 0.4339 -0.0000
vn 0.9556 0.2948 -0.0000
vn 0.9888 0.1490 -0.0000
vn 1.0000 -0.0000 -0.0000
vn 0.9888 -0.1490 -0.0000
vn 0.9556 -0.2948 -0.0000
vn 0.9010 -0.4339 -0.0000
vn 0.8262 -0.5633 -0.0000
vn 0.7331 -0.6802 -0.0000
vn 0.6235 -0.7818 -0.0000
vn 0.5000 -0.8660 -0.0000
vn 0.3653 -0.9309 -0.0000
vn 0.2225 -0.9749 -0.0000
vn 0.0747 -0.9972 -0.0000
vn -0.0747 -0.9972 -0.0000
vn -0.2225 -0.9749 -0.0000
vn -0.3653 -0.9309 -0.0000
vn -0.5000 -0.8660 -0.0000
vn -0.6235 -0.7818 -0.0000
vn -0.7331 -0.6802 -0.0000
vn -0.8262 -0.5633 -0.0000
vn -0.9010 -0.4339 -0.0000
vn -0.9556 -0.2948 -0.0000
vn -0.0000 -0.0000 1.0000
vn 0.6765 0.7364 -0.0000
vn 0.8390 0.5441 -0.0000
vn 0.9483 0.3172 -0.0000
vn 0.9975 0.0703 -0.0000
vn 0.9835 -0.1811 -0.0000
vn 0.9070 -0.4211 -0.0000
vn 0.7731 -0.6343 -0.0000
vn 0.5901 -0.8073 -0.0000
vn 0.3697 -0.9291 -0.0000
vn 0.1259 -0.9920 -0.0000
vn -0.1259 -0.9920 -0.0000
vn -0.3697 -0.9291 -0.0000
vn -0.5901 -0.8073 -0.0000
vn -0.7731 -0.6343 -0.0000
vn -0.9070 -0.4211 -0.0000
vn -0.9835 -0.1811 -0.0000
vn -0.9975 0.0703 -0.0000
vn -0.9483 0.3172 -0.0000
vn -0.8390 0.5441 -0.0000
vn -0.6765 0.7364 -0.0000
vn 0.9696 -0.2447 -0.0000
vn -0.0000 1.0000 -0.0000
vn -0.9696 -0.2447 -0.0000
vn -0.0000 -0.0000 -1.0000
vt 0.353553 14.211967
vt 0.353553 14.922565
vt -0.353553 14.922565
vt -0.353553 -14.922565
vt 0.353553 -14.922565
vt 0.353553 -14.211967
vt -0.353553 -14.176437
vt 0.353553 -13.501368
vt -0.353553 -13.430309
vt 0.353553 -12.790770
vt -0.353553 -12.684180
vt 0.353553 -12.080172
vt -0.353553 -11.938052
vt 0.353553 -11.369573
vt -0.353553 -11.191924
vt 0.353553 -10.658975
vt -0.353553 -10.445796
vt 0.353553 -9.948377
vt -0.353553 -9.699667
vt 0.353553 -9.237778
vt -0.353553 -8.953539
vt 0.353553 -8.527180
vt -0.353553 -8.207411
vt 0.353553 -7.816582
vt -0.353553 -7.461283
vt 0.353553 -7.105983
vt -0.353553 -6.715154
vt 0.353553 -6.395385
vt -0.353553 -5.969026
vt 0.353553 -5.684787
vt -0.353553 -5.222898
vt 0.353553 -4.974188
vt -0.353553 -4.476770
vt 0.353553 -4.263590
vt -0.353553 -3.730641
vt 0.353553 -3.552992
vt -0.353553 -2.984513
vt 0.353553 -2.842393
vt -0.353553 -2.238385
vt 0.353553 -2.131795
vt -0.353553 -1.492257
vt 0.353553 -1.421197
vt -0.353553 -0.746128
vt 0.353553 -0.710598
vt -0.353553 0.000000
vt 0.353553 0.000000
vt 0.353553 0.710598
vt -0.353553 0.746128
vt 0.353553 1.421197
vt -0.353553 1.492257
vt 0.353553 2.131795
vt -0.353553 2.238385
vt 0.353553 2.842393
vt -0.353553 2.984513
vt 0.353553 3.552992
vt -0.353553 3.730641
vt 0.353553 4.263590
vt -0.353553 4.476770
vt 0.353553 4.974188
vt -0.353553 5.222898
vt 0.353553 5.684787
vt -0.353553 5.969026
vt 0.353553 6.395385
vt -0.353553 6.715154
vt 0.353553 7.105983
vt -0.353553 7.461283
vt 0.353553 7.816582
vt -0.353553 8.207411
vt 0.353553 8.527180
vt -0.353553 8.953539
vt 0.353553 9.237778
vt -0.353553 9.699667
vt 0.353553 9.948377
vt -0.353553 10.445796
vt 0.353553 10.658975
vt -0.353553 11.191924
vt 0.353553 11.369573
vt -0.353553 11.938052
vt 0.353553 12.080172
vt -0.353553 12.684180
vt 0.353553 12.790770
vt -0.353553 13.430309
vt 0.353553 13.501368
vt -0.353553 14.176437
vt -0.000000 -14.959965
vt -2.000000 -14.959965
vt -0.000000 -15.707963
vt -2.000000 -15.707963
vt -0.000000 15.707963
vt -2.000000 15.707963
vt -0.000000 14.959965
vt -2.000000 14.959965
vt -0.000000 14.211967
vt -2.000000 14.211967
vt -0.000000 13.463969
vt -2.000000 13.463969
vt -0.000000 12.715970
vt -2.000000 12.715970
vt -0.000000 11.967972
vt -2.000000 11.967972
vt -0.000000 11.219974
vt -2.000000 11.219974
vt -0.000000 10.471976
vt -2.000000 10.471976
vt -0.000000 9.723977
vt -2.000000 9.723977
vt -0.000000 8.975979
vt -2.000000 8.975979
vt -0.000000 8.227981
vt -2.000000 8.227981
vt -0.000000 7.479983
vt -2.000000 7.479983
vt -0.000000 6.731984
vt -2.000000 6.731984
vt -0.000000 5.983986
vt -2.000000 5.983986
vt -0.000000 5.235988
vt -2.000000 5.235988
vt -0.000000 4.487990
vt -2.000000 4.487990
vt -0.000000 3.739991
vt -2.000000 3.739991
vt -0.000000 2.991993
vt -2.000000 2.991993
vt -0.000000 2.243995
vt -2.000000 2.243995
vt -0.000000 1.495997
vt -2.000000 1.495997
vt -0.000000 0.747998
vt -2.000000 0.747998
vt -0.000000 0.000000
vt -2.000000 0.000000
vt -0.000000 -0.747998
vt -2.000000 -0.747998
vt -0.000000 -1.495997
vt -2.000000 -1.495997
vt -0.000000 -2.243995
vt -2.000000 -2.243995
vt -0.000000 -2.991993
vt -2.000000 -2.991993
vt -0.000000 -3.739991
vt -2.000000 -3.739991
vt -0.000000 -4.487990
vt -2.000000 -4.487990
vt -0.000000 -5.235988
vt -2.000000 -5.235988
vt -0.000000 -5.983986
vt -2.000000 -5.983986
vt -0.000000 -6.731984
vt -2.000000 -6.731984
vt -0.000000 -7.479983
vt -2.000000 -7.479983
vt -0.000000 -8.227981
vt -2.000000 -8.227981
vt -0.000000 -8.975979
vt -2.000000 -8.975979
vt -0.000000 -9.723977
vt -2.000000 -9.723977
vt -0.000000 -10.471976
vt -2.000000 -10.471976
vt -0.000000 -11.219974
vt -2.000000 -11.219974
vt -0.000000 -11.967972
vt -2.000000 -11.967972
vt -0.000000 -12.715970
vt -2.000000 -12.715970
vt -0.000000 -13.463969
vt -2.000000 -13.463969
vt -0.000000 -14.211967
vt -2.000000 -14.211967
vt 0.839035 1.455923
vt 0.676520 1.263576
vt 4.500000 0.000000
vt 1.500000 -2.000000
vt 4.444598 -0.703955
vt 4.279754 -1.390576
vt 4.009529 -2.042957
vt 3.640576 -2.645034
vt 3.181981 -3.181981
vt 2.645034 -3.640576
vt 2.042957 -4.009529
vt 1.390576 -4.279754
vt 0.703955 -4.444598
vt 0.000000 -4.500000
vt -1.500000 -2.000000
vt -0.703955 -4.444598
vt -1.390576 -4.279754
vt -2.042957 -4.009529
vt -2.645034 -3.640576
vt -3.181981 -3.181981
vt -3.640576 -2.645034
vt -4.009529 -2.042957
vt -4.279754 -1.390576
vt -4.444598 -0.703955
vt -4.500000 0.000000
vt -0.676520 1.263576
vt -0.839035 1.455923
vt -0.948348 1.682769
vt -4.279754 1.390576
vt -4.444598 0.703955
vt -4.009529 2.042957
vt -0.997528 1.929730
vt -3.640576 2.645034
vt -3.181981 3.181981
vt -0.983456 2.181147
vt -2.645034 3.640576
vt -0.907024 2.421078
vt -2.042957 4.009529
vt -0.773080 2.634309
vt -1.390576 4.279754
vt -0.590115 2.807319
vt -0.369732 2.929138
vt -0.703955 4.444598
vt -0.125905 2.992042
vt 0.000000 4.500000
vt 0.125905 2.992042
vt 0.703955 4.444598
vt 0.369732 2.929138
vt 1.390576 4.279754
vt 0.590115 2.807319
vt 0.773080 2.634309
vt 2.042957 4.009529
vt 0.907024 2.421078
vt 2.645034 3.640576
vt 0.983456 2.181147
vt 3.181981 3.181981
vt 0.997528 1.929730
vt 3.640576 2.645034
vt 4.009529 2.042957
vt 0.948348 1.682769
vt 4.279754 1.390576
vt 4.444598 0.703955
vt 2.500000 -1.486054
vt 0.000000 -1.486054
vt 2.500000 -1.738535
vt 0.000000 -1.738535
vt 2.500000 -1.991015
vt 0.000000 -1.991015
vt 2.500000 -2.243496
vt 0.000000 -2.243496
vt 2.500000 -2.495977
vt 0.000000 -2.495977
vt 2.500000 -2.748457
vt 0.000000 -2.748457
vt 2.500000 -3.000938
vt -0.000000 -3.000938
vt 2.500000 -3.253418
vt 0.000000 -3.253418
vt 2.500000 -3.505899
vt 0.000000 -3.505899
vt 2.500000 -3.758379
vt 0.000000 -3.758379
vt 2.500000 -4.010860
vt -0.000000 -4.010860
vt 2.500000 -4.263341
vt 0.000000 -4.263341
vt 2.500000 -4.515821
vt 0.000000 -4.515821
vt 2.500000 -4.768302
vt 0.000000 -4.768302
vt 2.500000 -5.020782
vt -0.000000 -5.020782
vt 2.500000 -5.273263
vt -0.000000 -5.273263
vt 2.500000 -5.525744
vt -0.000000 -5.525744
vt 2.500000 -5.778224
vt 0.000000 -5.778224
vt 2.500000 -6.030705
vt 0.000000 -6.030705
vt 2.500000 -6.283185
vt 0.000000 -6.283185
vt 3.365865 0.000000
vt 0.000000 2.500000
vt 3.365865 2.500000
vt 3.000000 0.000000
vt 3.000000 2.500000
vt -5.000000 0.000000
vt -4.944154 -0.745211
vt -4.944154 0.745211
vt -4.777864 1.473776
vt -4.504844 2.169419
vt -4.131194 2.816600
vt -3.665259 3.400864
vt -3.117449 3.909157
vt -2.500000 4.330127
vt -1.826705 4.654369
vt -1.112605 4.874640
vt -0.373650 4.986019
vt 0.373650 4.986019
vt 1.112605 4.874640
vt 1.826705 4.654369
vt 2.500000 4.330127
vt 3.117449 3.909157
vt 3.665259 3.400864
vt 4.131194 2.816600
vt 4.504844 2.169419
vt 4.777864 1.473776
vt 4.944154 0.745211
vt 5.000000 -0.000000
vt 4.944154 -0.745211
vt 4.777864 -1.473776
vt 4.504844 -2.169419
vt 4.131194 -2.816600
vt 3.665259 -3.400864
vt 3.117449 -3.909157
vt 2.500000 -4.330127
vt 1.826705 -4.654369
vt 1.112605 -4.874640
vt 0.373650 -4.986019
vt -0.373650 -4.986019
vt -1.112605 -4.874640
vt -1.826705 -4.654369
vt -2.500000 -4.330127
vt -3.117449 -3.909157
vt -3.665259 -3.400864
vt -4.131194 -2.816600
vt -4.504844 -2.169419
vt -4.777864 -1.473776
s 1
usemtl Steel_-_Satin
f 42/1/1 1/2/2 43/3/2
f 43/4/2 1/5/2 2/6/3
f 43/4/2 2/6/3 82/7/4
f 82/7/4 2/6/3 3/8/5
f 82/7/4 3/8/5 81/9/6
f 81/9/6 3/8/5 4/10/7
f 81/9/6 4/10/7 80/11/8
f 80/11/8 4/10/7 5/12/9
f 80/11/8 5/12/9 79/13/10
f 79/13/10 5/12/9 6/14/11
f 79/13/10 6/14/11 78/15/12
f 78/15/12 6/14/11 7/16/13
f 78/15/12 7/16/13 77/17/14
f 77/17/14 7/16/13 8/18/15
f 77/17/14 8/18/15 76/19/16
f 76/19/16 8/18/15 9/20/17
f 76/19/16 9/20/17 75/21/18
f 75/21/18 9/20/17 10/22/19
f 75/21/18 10/22/19 74/23/20
f 74/23/20 10/22/19 11/24/21
f 74/23/20 11/24/21 73/25/22
f 73/25/22 11/24/21 12/26/23
f 73/25/22 12/26/23 72/27/24
f 72/27/24 12/26/23 13/28/25
f 72/27/24 13/28/25 71/29/26
f 71/29/26 13/28/25 14/30/27
f 71/29/26 14/30/27 70/31/28
f 70/31/28 14/30/27 15/32/29
f 70/31/28 15/32/29 69/33/30
f 69/33/30 15/32/29 16/34/31
f 69/33/30 16/34/31 68/35/32
f 68/35/32 16/34/31 17/36/33
f 68/35/32 17/36/33 67/37/34
f 67/37/34 17/36/33 18/38/35
f 67/37/34 18/38/35 66/39/36
f 66/39/36 18/38/35 19/40/37
f 66/39/36 19/40/37 65/41/38
f 65/41/38 19/40/37 20/42/39
f 65/41/38 20/42/39 64/43/40
f 64/43/40 20/42/39 21/44/41
f 64/43/40 21/44/41 63/45/42
f 63/45/42 21/44/41 22/46/42
f 63/45/42 22/46/42 23/47/43
f 63/45/42 23/47/43 62/48/44
f 62/48/44 23/47/43 24/49/45
f 62/48/44 24/49/45 61/50/46
f 61/50/46 24/49/45 25/51/47
f 61/50/46 25/51/47 60/52/48
f 60/52/48 25/51/47 26/53/49
f 60/52/48 26/53/49 59/54/50
f 59/54/50 26/53/49 27/55/51
f 59/54/50 27/55/51 58/56/52
f 58/56/52 27/55/51 28/57/53
f 58/56/52 28/57/53 57/58/54
f 57/58/54 28/57/53 29/59/55
f 57/58/54 29/59/55 56/60/56
f 56/60/56 29/59/55 30/61/57
f 56/60/56 30/61/57 55/62/58
f 55/62/58 30/61/57 31/63/59
f 55/62/58 31/63/59 54/64/60
f 54/64/60 31/63/59 32/65/61
f 54/64/60 32/65/61 53/66/62
f 53/66/62 32/65/61 33/67/63
f 53/66/62 33/67/63 52/68/64
f 52/68/64 33/67/63 34/69/65
f 52/68/64 34/69/65 51/70/66
f 51/70/66 34/69/65 35/71/67
f 51/70/66 35/71/67 50/72/68
f 50/72/68 35/71/67 36/73/69
f 50/72/68 36/73/69 49/74/70
f 49/74/70 36/73/69 37/75/71
f 49/74/70 37/75/71 48/76/72
f 48/76/72 37/75/71 38/77/73
f 48/76/72 38/77/73 47/78/74
f 47/78/74 38/77/73 39/79/75
f 47/78/74 39/79/75 46/80/76
f 46/80/76 39/79/75 40/81/77
f 46/80/76 40/81/77 45/82/78
f 45/82/78 40/81/77 41/83/79
f 45/82/78 41/83/79 44/84/80
f 44/84/80 41/83/79 42/1/1
f 44/84/80 42/1/1 43/3/2
f 84/85/81 2/86/81 83/87/82
f 83/87/82 2/86/81 1/88/82
f 83/89/82 1/90/82 124/91/83
f 124/91/83 1/90/82 42/92/83
f 124/91/83 42/92/83 123/93/84
f 123/93/84 42/92/83 41/94/84
f 123/93/84 41/94/84 122/95/85
f 122/95/85 41/94/84 40/96/85
f 122/95/85 40/96/85 121/97/86
f 121/97/86 40/96/85 39/98/86
f 121/97/86 39/98/86 120/99/87
f 120/99/87 39/98/86 38/100/87
f 120/99/87 38/100/87 119/101/88
f 119/101/88 38/100/87 37/102/88
f 119/101/88 37/102/88 118/103/89
f 118/103/89 37/102/88 36/104/89
f 118/103/89 36/104/89 117/105/90
f 117/105/90 36/104/89 35/106/90
f 117/105/90 35/106/90 116/107/91
f 116/107/91 35/106/90 34/108/91
f 116/107/91 34/108/91 115/109/92
f 115/109/92 34/108/91 33/110/92
f 115/109/92 33/110/92 114/111/93
f 114/111/93 33/110/92 32/112/93
f 114/111/93 32/112/93 113/113/94
f 113/113/94 32/112/93 31/114/94
f 113/113/94 31/114/94 112/115/95
f 112/115/95 31/114/94 30/116/95
f 112/115/95 30/116/95 111/117/96
f 111/117/96 30/116/95 29/118/96
f 111/117/96 29/118/96 110/119/97
f 110/119/97 29/118/96 28/120/97
f 110/119/97 28/120/97 109/121/98
f 109/121/98 28/120/97 27/122/98
f 109/121/98 27/122/98 108/123/99
f 108/123/99 27/122/98 26/124/99
f 108/123/99 26/124/99 107/125/100
f 107/125/100 26/124/99 25/126/100
f 107/125/100 25/126/100 106/127/101
f 106/127/101 25/126/100 24/128/101
f 106/127/101 24/128/101 105/129/102
f 105/129/102 24/128/101 23/130/102
f 105/129/102 23/130/102 104/131/103
f 104/131/103 23/130/102 22/132/103
f 104/131/103 22/132/103 103/133/104
f 103/133/104 22/132/103 21/134/104
f 103/133/104 21/134/104 102/135/105
f 102/135/105 21/134/104 20/136/105
f 102/135/105 20/136/105 101/137/106
f 101/137/106 20/136/105 19/138/106
f 101/137/106 19/138/106 100/139/107
f 100/139/107 19/138/106 18/140/107
f 100/139/107 18/140/107 99/141/108
f 99/141/108 18/140/107 17/142/108
f 99/141/108 17/142/108 98/143/109
f 98/143/109 17/142/108 16/144/109
f 98/143/109 16/144/109 97/145/110
f 97/145/110 16/144/109 15/146/110
f 97/145/110 15/146/110 96/147/111
f 96/147/111 15/146/110 14/148/111
f 96/147/111 14/148/111 95/149/112
f 95/149/112 14/148/111 13/150/112
f 95/149/112 13/150/112 94/151/113
f 94/151/113 13/150/112 12/152/113
f 94/151/113 12/152/113 93/153/114
f 93/153/114 12/152/113 11/154/114
f 93/153/114 11/154/114 92/155/115
f 92/155/115 11/154/114 10/156/115
f 92/155/115 10/156/115 91/157/116
f 91/157/116 10/156/115 9/158/116
f 91/157/116 9/158/116 90/159/117
f 90/159/117 9/158/116 8/160/117
f 90/159/117 8/160/117 89/161/118
f 89/161/118 8/160/117 7/162/118
f 89/161/118 7/162/118 88/163/119
f 88/163/119 7/162/118 6/164/119
f 88/163/119 6/164/119 87/165/120
f 87/165/120 6/164/119 5/166/120
f 87/165/120 5/166/120 86/167/121
f 86/167/121 5/166/120 4/168/121
f 86/167/121 4/168/121 85/169/122
f 85/169/122 4/168/121 3/170/122
f 85/169/122 3/170/122 84/85/81
f 84/85/81 3/170/122 2/86/81
f 146/171/123 125/172/123 63/173/123
f 63/173/123 125/172/123 126/174/123
f 63/173/123 126/174/123 64/175/123
f 64/175/123 126/174/123 65/176/123
f 65/176/123 126/174/123 66/177/123
f 66/177/123 126/174/123 67/178/123
f 67/178/123 126/174/123 68/179/123
f 68/179/123 126/174/123 69/180/123
f 69/180/123 126/174/123 70/181/123
f 70/181/123 126/174/123 71/182/123
f 71/182/123 126/174/123 72/183/123
f 72/183/123 126/174/123 73/184/123
f 73/184/123 126/174/123 127/185/123
f 73/184/123 127/185/123 74/186/123
f 74/186/123 127/185/123 75/187/123
f 75/187/123 127/185/123 76/188/123
f 76/188/123 127/185/123 77/189/123
f 77/189/123 127/185/123 78/190/123
f 78/190/123 127/185/123 79/191/123
f 79/191/123 127/185/123 80/192/123
f 80/192/123 127/185/123 81/193/123
f 81/193/123 127/185/123 82/194/123
f 82/194/123 127/185/123 43/195/123
f 43/195/123 127/185/123 128/196/123
f 43/195/123 128/196/123 129/197/123
f 130/198/123 45/199/123 129/197/123
f 129/197/123 45/199/123 44/200/123
f 129/197/123 44/200/123 43/195/123
f 45/199/123 130/198/123 46/201/123
f 46/201/123 130/198/123 131/202/123
f 46/201/123 131/202/123 47/203/123
f 47/203/123 131/202/123 48/204/123
f 48/204/123 131/202/123 132/205/123
f 48/204/123 132/205/123 49/206/123
f 49/206/123 132/205/123 133/207/123
f 49/206/123 133/207/123 50/208/123
f 50/208/123 133/207/123 134/209/123
f 50/208/123 134/209/123 51/210/123
f 51/210/123 134/209/123 135/211/123
f 51/210/123 135/211/123 136/212/123
f 51/210/123 136/212/123 52/213/123
f 52/213/123 136/212/123 137/214/123
f 52/213/123 137/214/123 53/215/123
f 53/215/123 137/214/123 138/216/123
f 53/215/123 138/216/123 54/217/123
f 54/217/123 138/216/123 139/218/123
f 54/217/123 139/218/123 55/219/123
f 55/219/123 139/218/123 140/220/123
f 55/219/123 140/220/123 141/221/123
f 55/219/123 141/221/123 56/222/123
f 56/222/123 141/221/123 142/223/123
f 56/222/123 142/223/123 57/224/123
f 57/224/123 142/223/123 143/225/123
f 57/224/123 143/225/123 58/226/123
f 58/226/123 143/225/123 144/227/123
f 58/226/123 144/227/123 59/228/123
f 59/228/123 144/227/123 60/229/123
f 60/229/123 144/227/123 145/230/123
f 60/229/123 145/230/123 61/231/123
f 61/231/123 145/230/123 146/171/123
f 61/231/123 146/171/123 62/232/123
f 62/232/123 146/171/123 63/173/123
f 128/233/124 147/234/124 129/235/125
f 129/235/125 147/234/124 148/236/125
f 129/235/125 148/236/125 130/237/126
f 130/237/126 148/236/125 149/238/126
f 130/237/126 149/238/126 131/239/127
f 131/239/127 149/238/126 150/240/127
f 131/239/127 150/240/127 132/241/128
f 132/241/128 150/240/127 151/242/128
f 132/241/128 151/242/128 133/243/129
f 133/243/129 151/242/128 152/244/129
f 133/243/129 152/244/129 134/245/130
f 134/245/130 152/244/129 153/246/130
f 134/245/130 153/246/130 135/247/131
f 135/247/131 153/246/130 154/248/131
f 135/247/131 154/248/131 136/249/132
f 136/249/132 154/248/131 155/250/132
f 136/249/132 155/250/132 137/251/133
f 137/251/133 155/250/132 156/252/133
f 137/251/133 156/252/133 138/253/134
f 138/253/134 156/252/133 157/254/134
f 138/253/134 157/254/134 139/255/135
f 139/255/135 157/254/134 158/256/135
f 139/255/135 158/256/135 140/257/136
f 140/257/136 158/256/135 159/258/136
f 140/257/136 159/258/136 141/259/137
f 141/259/137 159/258/136 160/260/137
f 141/259/137 160/260/137 142/261/138
f 142/261/138 160/260/137 161/262/138
f 142/261/138 161/262/138 143/263/139
f 143/263/139 161/262/138 162/264/139
f 143/263/139 162/264/139 144/265/140
f 144/265/140 162/264/139 163/266/140
f 144/265/140 163/266/140 145/267/141
f 145/267/141 163/266/140 164/268/141
f 145/267/141 164/268/141 146/269/142
f 146/269/142 164/268/141 165/270/142
f 146/269/142 165/270/142 125/271/143
f 125/271/143 165/270/142 166/272/143
f 167/131/144 147/273/144 127/274/144
f 127/274/144 147/273/144 128/275/144
f 168/131/145 167/276/145 126/274/145
f 126/274/145 167/276/145 127/277/145
f 166/131/146 168/273/146 125/274/146
f 125/274/146 168/273/146 126/275/146
f 166/196/147 165/197/147 168/185/147
f 168/185/147 165/197/147 104/278/147
f 168/185/147 104/278/147 103/279/147
f 104/278/147 165/197/147 105/280/147
f 105/280/147 165/197/147 164/198/147
f 105/280/147 164/198/147 106/281/147
f 106/281/147 164/198/147 107/282/147
f 107/282/147 164/198/147 163/202/147
f 107/282/147 163/202/147 108/283/147
f 108/283/147 163/202/147 109/284/147
f 109/284/147 163/202/147 162/205/147
f 109/284/147 162/205/147 110/285/147
f 110/285/147 162/205/147 161/207/147
f 110/285/147 161/207/147 111/286/147
f 111/286/147 161/207/147 160/209/147
f 111/286/147 160/209/147 112/287/147
f 112/287/147 160/209/147 159/211/147
f 112/287/147 159/211/147 113/288/147
f 113/288/147 159/211/147 158/212/147
f 113/288/147 158/212/147 114/289/147
f 114/289/147 158/212/147 157/214/147
f 114/289/147 157/214/147 156/216/147
f 114/289/147 156/216/147 115/290/147
f 115/290/147 156/216/147 155/218/147
f 115/290/147 155/218/147 116/291/147
f 116/291/147 155/218/147 154/220/147
f 116/291/147 154/220/147 117/292/147
f 117/292/147 154/220/147 153/221/147
f 117/292/147 153/221/147 118/293/147
f 118/293/147 153/221/147 152/223/147
f 118/293/147 152/223/147 119/294/147
f 119/294/147 152/223/147 151/225/147
f 119/294/147 151/225/147 120/295/147
f 120/295/147 151/225/147 150/227/147
f 120/295/147 150/227/147 121/296/147
f 121/296/147 150/227/147 122/297/147
f 122/297/147 150/227/147 149/230/147
f 122/297/147 149/230/147 123/298/147
f 123/298/147 149/230/147 124/299/147
f 124/299/147 149/230/147 148/171/147
f 124/299/147 148/171/147 83/300/147
f 83/300/147 148/171/147 167/174/147
f 83/300/147 167/174/147 84/301/147
f 84/301/147 167/174/147 85/302/147
f 85/302/147 167/174/147 86/303/147
f 86/303/147 167/174/147 87/304/147
f 87/304/147 167/174/147 88/305/147
f 88/305/147 167/174/147 89/306/147
f 89/306/147 167/174/147 90/307/147
f 90/307/147 167/174/147 91/308/147
f 91/308/147 167/174/147 92/309/147
f 92/309/147 167/174/147 93/310/147
f 93/310/147 167/174/147 168/185/147
f 93/310/147 168/185/147 94/311/147
f 94/311/147 168/185/147 95/312/147
f 95/312/147 168/185/147 96/313/147
f 96/313/147 168/185/147 97/314/147
f 97/314/147 168/185/147 98/315/147
f 98/315/147 168/185/147 99/316/147
f 99/316/147 168/185/147 100/317/147
f 100/317/147 168/185/147 101/318/147
f 101/318/147 168/185/147 102/319/147
f 102/319/147 168/185/147 103/279/147
f 148/171/147 147/172/147 167/174/147
g key_key
v 0.317541 2.043129 -3.430879
v 0.235019 -1.328048 -3.440181
v 0.222461 1.541848 3.830270
v 0.183797 -0.063174 3.771057
v 0.231655 -0.027131 -0.348615
v 0.213525 -0.740265 -0.291546
v 0.214500 -1.372720 -1.736555
v 0.225127 -0.740806 -1.310214
v 0.237759 -0.215703 -1.289425
v 0.243563 -0.208964 -1.783953
v -0.322496 2.058815 -3.438177
v -0.405016 -1.312360 -3.447478
v -0.425538 -1.357032 -1.743851
v -0.396473 -0.193276 -1.791250
v -0.402276 -0.200014 -1.296723
v -0.414910 -0.725118 -1.317513
v -0.426513 -0.724578 -0.298843
v -0.408383 -0.011443 -0.355914
v -0.456239 -0.047487 3.763762
v -0.417576 1.557537 3.822971
v 0.533216 2.338397 3.609773
v 0.451187 -1.012857 3.600115
v -0.683833 2.368226 3.595896
v -0.765862 -0.983028 3.586238
v -0.701670 2.363186 5.149387
v -0.779390 -0.893443 4.965199
v 0.515378 2.333356 5.163265
v 0.437659 -0.923272 4.979075
v 0.708996 -1.111495 7.826501
v 0.705994 -1.057713 8.205312
v 0.705736 -0.904237 8.557762
v 0.708243 -0.661529 8.859834
v 0.713337 -0.346124 9.090938
v 0.720677 0.020478 9.235331
v 0.729759 0.413297 9.283169
v 0.739966 0.805561 9.231193
v 0.750601 1.170541 9.082945
v 0.760941 1.483363 8.848528
v 0.770281 1.722705 8.543917
v 0.777984 1.872262 8.189870
v 0.783526 1.921840 7.810514
v 0.786525 1.868057 7.431707
v 0.786784 1.714583 7.079258
v 0.784278 1.471872 6.777186
v 0.779184 1.156470 6.546082
v 0.771845 0.789866 6.401689
v 0.762761 0.397049 6.353849
v 0.752555 0.004783 6.405827
v 0.741920 -0.360197 6.554073
v 0.731577 -0.673017 6.788491
v 0.722240 -0.912361 7.093103
v 0.714538 -1.061917 7.447147
v -1.124439 -1.066556 7.805596
v -1.127439 -1.012774 8.184406
v -1.127696 -0.859300 8.536856
v -1.125192 -0.616591 8.838926
v -1.120096 -0.301187 9.070033
v -1.112758 0.065414 9.214425
v -1.103675 0.458234 9.262262
v -1.093469 0.850500 9.210287
v -1.082833 1.215479 9.062038
v -1.072492 1.528300 8.827623
v -1.063151 1.767644 8.523011
v -1.055449 1.917200 8.168964
v -1.049909 1.966776 7.789610
v -1.046907 1.912994 7.410802
v -1.046650 1.759519 7.058352
v -1.049155 1.516811 6.756283
v -1.054251 1.201407 6.525176
v -1.061590 0.834805 6.380784
v -1.070673 0.441986 6.332945
v -1.080880 0.049721 6.384921
v -1.091515 -0.315258 6.533168
v -1.101855 -0.628080 6.767586
v -1.111195 -0.867423 7.072197
v -1.118897 -1.016979 7.426244
v -1.175474 -3.143710 7.816542
v -1.181957 -3.016580 8.658272
v -1.181980 -2.653202 9.441351
v -1.175540 -2.078340 10.112409
v -1.163080 -1.331164 10.625718
v -1.145448 -0.462602 10.946294
v -1.123841 0.468163 11.052293
v -1.099739 1.397697 10.936488
v -1.074779 2.262654 10.606778
v -1.050664 3.004090 10.085623
v -1.029039 3.571476 9.408547
v -1.011372 3.926144 8.621685
v -0.998874 4.043930 7.778665
v -0.992391 3.916800 6.936933
v -0.992369 3.553424 6.153856
v -0.998808 2.978559 5.482800
v -1.011267 2.231386 4.969491
v -1.028901 1.362822 4.648913
v -1.050505 0.432056 4.542916
v -1.074609 -0.497477 4.658718
v -1.099567 -1.362434 4.988429
v -1.123683 -2.103869 5.509582
v -1.145310 -2.671256 6.186660
v -1.162975 -3.025925 6.973522
v 0.657960 -3.188646 7.837447
v 0.651478 -3.061519 8.679177
v 0.651456 -2.698140 9.462255
v 0.657894 -2.123276 10.133314
v 0.670355 -1.376103 10.646624
v 0.687987 -0.507539 10.967199
v 0.709591 0.423227 11.073197
v 0.733695 1.352759 10.957396
v 0.758656 2.217716 10.627682
v 0.782771 2.959153 10.106529
v 0.804397 3.526540 9.429450
v 0.822061 3.881208 8.642591
v 0.834561 3.998991 7.799570
v 0.841044 3.871864 6.957839
v 0.841066 3.508485 6.174763
v 0.834627 2.933621 5.503702
v 0.822166 2.186447 4.990396
v 0.804534 1.317885 4.669820
v 0.782928 0.387120 4.563819
v 0.758826 -0.542413 4.679625
v 0.733865 -1.407371 5.009335
v 0.709751 -2.148806 5.530488
v 0.688125 -2.716193 6.207568
v 0.670460 -3.070864 6.994428
v 0.317541 2.043129 -3.430879
v 0.235019 -1.328048 -3.440181
v 0.222461 1.541848 3.830270
v 0.183797 -0.063174 3.771057
v 0.231655 -0.027131 -0.348615
v 0.213525 -0.740265 -0.291546
v 0.214500 -1.372720 -1.736555
v 0.225127 -0.740806 -1.310214
v 0.237759 -0.215703 -1.289425
v 0.243563 -0.208964 -1.783953
v -0.322496 2.058815 -3.438177
v -0.405016 -1.312360 -3.447478
v -0.425538 -1.357032 -1.743851
v -0.396473 -0.193276 -1.791250
v -0.402276 -0.200014 -1.296723
v -0.414910 -0.725118 -1.317513
v -0.426513 -0.724578 -0.298843
v -0.408383 -0.011443 -0.355914
v -0.456239 -0.047487 3.763762
v -0.417576 1.557537 3.822971
v 0.533216 2.338397 3.609773
v 0.451187 -1.012857 3.600115
v -0.683833 2.368226 3.595896
v -0.765862 -0.983028 3.586238
v -0.701670 2.363186 5.149387
v -0.779390 -0.893443 4.965199
v 0.515378 2.333356 5.163265
v 0.437659 -0.923272 4.979075
v 0.708996 -1.111495 7.826501
v 0.705994 -1.057713 8.205312
v 0.705736 -0.904237 8.557762
v 0.708243 -0.661529 8.859834
v 0.713337 -0.346124 9.090938
v 0.720677 0.020478 9.235331
v 0.729759 0.413297 9.283169
v 0.739966 0.805561 9.231193
v 0.750601 1.170541 9.082945
v 0.760941 1.483363 8.848528
v 0.770281 1.722705 8.543917
v 0.777984 1.872262 8.189870
v 0.783526 1.921840 7.810514
v 0.786525 1.868057 7.431707
v 0.786784 1.714583 7.079258
v 0.784278 1.471872 6.777186
v 0.779184 1.156470 6.546082
v 0.771845 0.789866 6.401689
v 0.762761 0.397049 6.353849
v 0.752555 0.004783 6.405827
v 0.741920 -0.360197 6.554073
v 0.731577 -0.673017 6.788491
v 0.722240 -0.912361 7.093103
v 0.714538 -1.061917 7.447147
v -1.124439 -1.066556 7.805596
v -1.127439 -1.012774 8.184406
v -1.127696 -0.859300 8.536856
v -1.125192 -0.616591 8.838926
v -1.120096 -0.301187 9.070033
v -1.112758 0.065414 9.214425
v -1.103675 0.458234 9.262262
v -1.093469 0.850500 9.210287
v -1.082833 1.215479 9.062038
v -1.072492 1.528300 8.827623
v -1.063151 1.767644 8.523011
v -1.055449 1.917200 8.168964
v -1.049909 1.966776 7.789610
v -1.046907 1.912994 7.410802
v -1.046650 1.759519 7.058352
v -1.049155 1.516811 6.756283
v -1.054251 1.201407 6.525176
v -1.061590 0.834805 6.380784
v -1.070673 0.441986 6.332945
v -1.080880 0.049721 6.384921
v -1.091515 -0.315258 6.533168
v -1.101855 -0.628080 6.767586
v -1.111195 -0.867423 7.072197
v -1.118897 -1.016979 7.426244
v -1.175474 -3.143710 7.816542
v -1.181957 -3.016580 8.658272
v -1.181980 -2.653202 9.441351
v -1.175540 -2.078340 10.112409
v -1.163080 -1.331164 10.625718
v -1.145448 -0.462602 10.946294
v -1.123841 0.468163 11.052293
v -1.099739 1.397697 10.936488
v -1.074779 2.262654 10.606778
v -1.050664 3.004090 10.085623
v -1.029039 3.571476 9.408547
v -1.011372 3.926144 8.621685
v -0.998874 4.043930 7.778665
v -0.992391 3.916800 6.936933
v -0.992369 3.553424 6.153856
v -0.998808 2.978559 5.482800
v -1.011267 2.231386 4.969491
v -1.028901 1.362822 4.648913
v -1.050505 0.432056 4.542916
v -1.074609 -0.497477 4.658718
v -1.099567 -1.362434 4.988429
v -1.123683 -2.103869 5.509582
v -1.145310 -2.671256 6.186660
v -1.162975 -3.025925 6.973522
v 0.657960 -3.188646 7.837447
v 0.651478 -3.061519 8.679177
v 0.651456 -2.698140 9.462255
v 0.657894 -2.123276 10.133314
v 0.670355 -1.376103 10.646624
v 0.687987 -0.507539 10.967199
v 0.709591 0.423227 11.073197
v 0.733695 1.352759 10.957396
v 0.758656 2.217716 10.627682
v 0.782771 2.959153 10.106529
v 0.804397 3.526540 9.429450
v 0.822061 3.881208 8.642591
v 0.834561 3.998991 7.799570
v 0.841044 3.871864 6.957839
v 0.841066 3.508485 6.174763
v 0.834627 2.933621 5.503702
v 0.822166 2.186447 4.990396
v 0.804534 1.317885 4.669820
v 0.782928 0.387120 4.563819
v 0.758826 -0.542413 4.679625
v 0.733865 -1.407371 5.009335
v 0.709751 -2.148806 5.530488
v 0.688125 -2.716193 6.207568
v 0.670460 -3.070864 6.994428
vn -0.9996 0.0245 -0.0114
vn 0.9996 -0.0245 0.0114
vn 0.0115 0.0025 -0.9999
vn -0.0242 -0.9994 -0.0265
vn -0.0104 0.0410 0.9991
vn -0.0243 -0.9996 -0.0139
vn 0.0124 0.0393 -0.9992
vn -0.0245 -0.9997 0.0003
vn -0.0094 0.0800 0.9968
vn -0.0094 0.0800 0.9967
vn -0.0244 -0.9997 -0.0090
vn 0.0237 0.9973 0.0692
vn 0.0115 0.0026 -0.9999
vn -0.0252 -0.9976 0.0646
vn 0.0245 0.9997 0.0035
vn 0.0267 0.9619 -0.2722
vn 0.0246 0.9997 -0.0053
vn 0.0269 0.8552 -0.5176
vn 0.0269 0.8551 -0.5178
vn 0.0252 0.6904 -0.7230
vn 0.0252 0.6905 -0.7229
vn 0.0218 0.4819 -0.8760
vn 0.0218 0.4820 -0.8759
vn 0.0171 0.2453 -0.9693
vn 0.0113 -0.0055 -0.9999
vn 0.0047 -0.2560 -0.9667
vn -0.0021 -0.4917 -0.8708
vn -0.0021 -0.4915 -0.8709
vn -0.0090 -0.6984 -0.7156
vn -0.0090 -0.6985 -0.7155
vn -0.0153 -0.8609 -0.5085
vn -0.0153 -0.8608 -0.5086
vn -0.0207 -0.9648 -0.2620
vn -0.0246 -0.9997 0.0053
vn -0.0267 -0.9619 0.2722
vn -0.0269 -0.8551 0.5178
vn -0.0269 -0.8552 0.5177
vn -0.0252 -0.6904 0.7230
vn -0.0218 -0.4819 0.8760
vn -0.0218 -0.4820 0.8759
vn -0.0171 -0.2453 0.9693
vn -0.0113 0.0055 0.9999
vn -0.0047 0.2560 0.9667
vn 0.0021 0.4916 0.8708
vn 0.0021 0.4920 0.8706
vn 0.0090 0.6988 0.7153
vn 0.0090 0.6984 0.7156
vn 0.0153 0.8608 0.5087
vn 0.0153 0.8608 0.5086
vn 0.0207 0.9647 0.2624
vn 0.0207 0.9648 0.2620
vn -0.0267 -0.9570 0.2887
vn -0.0268 -0.8399 0.5420
vn -0.0248 -0.6669 0.7448
vn -0.0248 -0.6668 0.7448
vn -0.0214 -0.4582 0.8886
vn -0.0167 -0.2304 0.9729
vn -0.0052 0.2410 0.9705
vn -0.0052 0.2412 0.9705
vn 0.0014 0.4680 0.8837
vn 0.0014 0.4681 0.8837
vn 0.0081 0.6751 0.7377
vn 0.0147 0.8459 0.5331
vn 0.0204 0.9602 0.2787
vn 0.0204 0.9602 0.2786
vn 0.0267 0.9571 -0.2887
vn 0.0268 0.8399 -0.5420
vn 0.0248 0.6669 -0.7447
vn 0.0248 0.6669 -0.7448
vn 0.0214 0.4582 -0.8886
vn 0.0167 0.2304 -0.9729
vn 0.0167 0.2305 -0.9729
vn 0.0052 -0.2411 -0.9705
vn 0.0052 -0.2413 -0.9704
vn -0.0014 -0.4680 -0.8837
vn -0.0081 -0.6751 -0.7377
vn -0.0147 -0.8459 -0.5332
vn -0.0204 -0.9602 -0.2787
vt 0.379384 0.684881
vt 0.373258 0.787730
vt 0.223720 0.686103
vt 0.219362 0.984272
vt 0.883309 0.973043
vt 0.418434 0.787926
vt 0.510382 0.743131
vt 0.504068 0.806111
vt 0.417346 0.741452
vt 0.880381 0.830997
vt 0.925541 0.598861
vt 0.925541 0.422669
vt 0.989045 0.598600
vt 0.989045 0.422669
vt 0.925541 0.337730
vt 0.989045 0.337730
vt 0.925541 0.279910
vt 0.989045 0.279910
vt 0.925541 0.255616
vt 0.989045 0.255617
vt 0.925541 0.231975
vt 0.989045 0.231975
vt 0.925541 0.191115
vt 0.989045 0.191115
vt 0.925541 0.163178
vt 0.989045 0.163178
vt 0.925541 0.008308
vt 0.989045 0.008554
vt 0.925541 0.987630
vt 0.989045 0.987620
vt 0.768135 0.645110
vt 0.498641 0.648005
vt 0.767086 0.547243
vt 0.497586 0.550133
vt 0.645676 0.797411
vt 0.645151 0.663363
vt 0.895677 0.797707
vt 0.894842 0.663361
vt 0.895678 0.797707
vt 0.359313 0.649488
vt 0.358266 0.551623
vt 0.909460 0.643630
vt 0.908401 0.545716
vt 0.341735 0.641270
vt 0.341735 0.668690
vt 0.198352 0.641270
vt 0.198352 0.668690
vt 0.341735 0.613850
vt 0.198352 0.613850
vt 0.341735 0.586430
vt 0.198352 0.586430
vt 0.341735 0.559010
vt 0.198352 0.559010
vt 0.341735 0.531590
vt 0.198352 0.531590
vt 0.341735 0.504170
vt 0.198352 0.504170
vt 0.341735 0.476750
vt 0.198352 0.476750
vt 0.341735 0.449330
vt 0.198352 0.449330
vt 0.341735 0.421910
vt 0.198352 0.421910
vt 0.341735 0.394490
vt 0.198352 0.394490
vt 0.341735 0.367070
vt 0.198352 0.367070
vt 0.341735 0.339651
vt 0.198352 0.339650
vt 0.341735 0.312230
vt 0.198352 0.312230
vt 0.341735 0.284810
vt 0.198352 0.284810
vt 0.341735 0.257390
vt 0.198352 0.257390
vt 0.341735 0.229971
vt 0.198352 0.229971
vt 0.341735 0.202550
vt 0.198352 0.202550
vt 0.341735 0.175130
vt 0.198352 0.175130
vt 0.341735 0.147710
vt 0.198352 0.147710
vt 0.341735 0.120290
vt 0.198352 0.120290
vt 0.341735 0.092870
vt 0.198352 0.092870
vt 0.341735 0.065451
vt 0.198352 0.065450
vt 0.341735 0.038030
vt 0.198352 0.038030
vt 0.341735 0.010611
vt 0.198352 0.010611
vt 0.720851 0.304521
vt 0.724582 0.274296
vt 0.865729 0.341461
vt 0.874572 0.274296
vt 0.709910 0.332687
vt 0.839805 0.404049
vt 0.692506 0.356873
vt 0.798564 0.457795
vt 0.669824 0.375432
vt 0.744818 0.499035
vt 0.643410 0.387098
vt 0.682230 0.524960
vt 0.615065 0.391077
vt 0.615065 0.533802
vt 0.586720 0.387098
vt 0.547900 0.524960
vt 0.560307 0.375432
vt 0.485312 0.499035
vt 0.537625 0.356873
vt 0.431566 0.457795
vt 0.520221 0.332687
vt 0.390326 0.404049
vt 0.509280 0.304521
vt 0.364401 0.341461
vt 0.505548 0.274296
vt 0.355558 0.274296
vt 0.509280 0.244070
vt 0.364401 0.207130
vt 0.520221 0.215905
vt 0.390326 0.144542
vt 0.537625 0.191718
vt 0.431566 0.090797
vt 0.560307 0.173159
vt 0.485312 0.049556
vt 0.586720 0.161493
vt 0.547900 0.023631
vt 0.615065 0.157514
vt 0.615065 0.014789
vt 0.643410 0.161493
vt 0.682230 0.023631
vt 0.669824 0.173159
vt 0.744818 0.049556
vt 0.692505 0.191718
vt 0.798564 0.090797
vt 0.709910 0.215905
vt 0.839805 0.144542
vt 0.720851 0.244070
vt 0.865729 0.207130
vt 0.188816 0.944223
vt 0.188816 0.984638
vt 0.014052 0.944223
vt 0.014052 0.984638
vt 0.188816 0.903806
vt 0.014052 0.903807
vt 0.188816 0.863391
vt 0.014052 0.863391
vt 0.188816 0.822975
vt 0.014052 0.822975
vt 0.188816 0.782559
vt 0.014052 0.782559
vt 0.188816 0.742143
vt 0.014052 0.742143
vt 0.188816 0.701727
vt 0.014052 0.701727
vt 0.188816 0.661311
vt 0.014052 0.661311
vt 0.188816 0.620895
vt 0.014052 0.620895
vt 0.188816 0.580479
vt 0.014052 0.580480
vt 0.188816 0.540064
vt 0.014052 0.540064
vt 0.188816 0.499648
vt 0.014052 0.499648
vt 0.188816 0.459232
vt 0.014052 0.459232
vt 0.188816 0.418816
vt 0.014052 0.418816
vt 0.188816 0.378400
vt 0.014052 0.378400
vt 0.188816 0.337984
vt 0.014052 0.337984
vt 0.188816 0.297568
vt 0.014052 0.297568
vt 0.188816 0.257152
vt 0.014052 0.257152
vt 0.188815 0.216736
vt 0.014052 0.216736
vt 0.188816 0.176320
vt 0.014052 0.176320
vt 0.188816 0.135904
vt 0.014052 0.135904
vt 0.188816 0.095488
vt 0.014052 0.095488
vt 0.188815 0.055073
vt 0.014052 0.055073
vt 0.188816 0.014657
vt 0.014052 0.014657
s 1
usemtl initialShadingGroup
f 181/320/148 182/321/148 180/322/148
f 180/322/148 182/321/148 179/323/148
f 179/323/148 182/321/148 188/324/148
f 182/321/148 183/325/148 188/324/148
f 185/326/148 186/327/148 184/328/148
f 184/328/148 186/327/148 183/325/148
f 183/325/148 186/327/148 188/324/148
f 186/327/148 187/329/148 188/324/148
f 174/326/149 176/328/149 173/327/149
f 176/328/149 177/325/149 173/327/149
f 175/320/149 170/322/149 178/321/149
f 170/322/149 169/323/149 178/321/149
f 169/323/149 171/324/149 178/321/149
f 178/321/149 171/324/149 177/325/149
f 177/325/149 171/324/149 173/327/149
f 171/324/149 172/329/149 173/327/149
f 169/330/150 170/331/150 179/332/150
f 179/332/150 170/331/150 180/333/150
f 170/331/151 175/334/151 180/333/151
f 180/333/151 175/334/151 181/335/151
f 175/334/152 178/336/152 181/335/152
f 181/335/152 178/336/152 182/337/152
f 178/336/153 177/338/153 182/337/153
f 182/337/153 177/338/153 183/339/153
f 177/338/154 176/340/154 183/339/154
f 183/339/154 176/340/154 184/341/154
f 176/340/155 174/342/155 184/341/155
f 184/341/155 174/342/155 185/343/155
f 174/342/156 173/344/157 185/343/157
f 185/343/157 173/344/157 186/345/157
f 173/344/158 172/346/158 186/345/158
f 186/345/158 172/346/158 187/347/158
f 171/348/159 169/330/159 188/349/159
f 188/349/159 169/330/159 179/332/159
f 189/350/160 190/351/160 191/352/160
f 191/352/160 190/351/160 192/353/160
f 192/354/148 194/355/148 191/356/148
f 191/356/148 194/355/148 193/357/148
f 195/358/149 196/354/149 189/357/149
f 189/357/149 196/354/149 190/355/149
f 190/351/161 196/359/161 192/353/161
f 192/353/161 196/359/161 194/360/161
f 195/361/162 189/350/162 193/362/162
f 193/362/162 189/350/162 191/352/162
f 198/363/163 197/364/164 222/365/163
f 222/365/163 197/364/164 221/366/164
f 199/367/165 198/363/163 223/368/166
f 223/368/166 198/363/163 222/365/163
f 200/369/167 199/367/165 224/370/168
f 224/370/168 199/367/165 223/368/166
f 201/371/169 200/369/167 225/372/170
f 225/372/170 200/369/167 224/370/168
f 202/373/171 201/371/169 226/374/171
f 226/374/171 201/371/169 225/372/170
f 203/375/172 202/373/171 227/376/172
f 227/376/172 202/373/171 226/374/171
f 204/377/173 203/375/172 228/378/173
f 228/378/173 203/375/172 227/376/172
f 205/379/174 204/377/173 229/380/175
f 229/380/175 204/377/173 228/378/173
f 206/381/176 205/379/174 230/382/177
f 230/382/177 205/379/174 229/380/175
f 207/383/178 206/381/176 231/384/179
f 231/384/179 206/381/176 230/382/177
f 208/385/180 207/383/178 232/386/180
f 232/386/180 207/383/178 231/384/179
f 209/387/181 208/385/180 233/388/181
f 233/388/181 208/385/180 232/386/180
f 210/389/182 209/387/181 234/390/182
f 234/390/182 209/387/181 233/388/181
f 211/391/183 210/389/182 235/392/184
f 235/392/184 210/389/182 234/390/182
f 212/393/185 211/391/183 236/394/185
f 236/394/185 211/391/183 235/392/184
f 213/395/186 212/393/185 237/396/187
f 237/396/187 212/393/185 236/394/185
f 214/397/188 213/395/186 238/398/188
f 238/398/188 213/395/186 237/396/187
f 215/399/189 214/397/188 239/400/189
f 239/400/189 214/397/188 238/398/188
f 216/401/190 215/399/189 240/402/190
f 240/402/190 215/399/189 239/400/189
f 217/403/191 216/401/190 241/404/192
f 241/404/192 216/401/190 240/402/190
f 218/405/193 217/403/191 242/406/194
f 242/406/194 217/403/191 241/404/192
f 219/407/195 218/405/193 243/408/196
f 243/408/196 218/405/193 242/406/194
f 220/409/197 219/407/195 244/410/198
f 244/410/198 219/407/195 243/408/196
f 197/411/164 220/409/197 221/412/164
f 221/412/164 220/409/197 244/410/198
f 222/413/148 221/414/148 246/415/148
f 246/415/148 221/414/148 245/416/148
f 223/417/148 222/413/148 247/418/148
f 247/418/148 222/413/148 246/415/148
f 224/419/148 223/417/148 248/420/148
f 248/420/148 223/417/148 247/418/148
f 225/421/148 224/419/148 249/422/148
f 249/422/148 224/419/148 248/420/148
f 226/423/148 225/421/148 250/424/148
f 250/424/148 225/421/148 249/422/148
f 227/425/148 226/423/148 251/426/148
f 251/426/148 226/423/148 250/424/148
f 227/425/148 251/426/148 228/427/148
f 228/427/148 251/426/148 252/428/148
f 228/427/148 252/428/148 229/429/148
f 229/429/148 252/428/148 253/430/148
f 229/429/148 253/430/148 230/431/148
f 230/431/148 253/430/148 254/432/148
f 230/431/148 254/432/148 231/433/148
f 231/433/148 254/432/148 255/434/148
f 231/433/148 255/434/148 232/435/148
f 232/435/148 255/434/148 256/436/148
f 232/435/148 256/436/148 233/437/148
f 233/437/148 256/436/148 257/438/148
f 234/439/148 233/437/148 258/440/148
f 258/440/148 233/437/148 257/438/148
f 235/441/148 234/439/148 259/442/148
f 259/442/148 234/439/148 258/440/148
f 236/443/148 235/441/148 260/444/148
f 260/444/148 235/441/148 259/442/148
f 237/445/148 236/443/148 261/446/148
f 261/446/148 236/443/148 260/444/148
f 238/447/148 237/445/148 262/448/148
f 262/448/148 237/445/148 261/446/148
f 239/449/148 238/447/148 263/450/148
f 263/450/148 238/447/148 262/448/148
f 239/449/148 263/450/148 240/451/148
f 240/451/148 263/450/148 264/452/148
f 240/451/148 264/452/148 241/453/148
f 241/453/148 264/452/148 265/454/148
f 241/453/148 265/454/148 242/455/148
f 242/455/148 265/454/148 266/456/148
f 242/455/148 266/456/148 243/457/148
f 243/457/148 266/456/148 267/458/148
f 243/457/148 267/458/148 244/459/148
f 244/459/148 267/458/148 268/460/148
f 244/459/148 268/460/148 221/414/148
f 221/414/148 268/460/148 245/416/148
f 246/461/199 245/462/181 270/463/199
f 270/463/199 245/462/181 269/464/181
f 247/465/200 246/461/199 271/466/200
f 271/466/200 246/461/199 270/463/199
f 248/467/201 247/465/200 272/468/202
f 272/468/202 247/465/200 271/466/200
f 249/469/203 248/467/201 273/470/203
f 273/470/203 248/467/201 272/468/202
f 250/471/204 249/469/203 274/472/204
f 274/472/204 249/469/203 273/470/203
f 251/473/189 250/471/204 275/474/189
f 275/474/189 250/471/204 274/472/204
f 252/475/205 251/473/189 276/476/206
f 276/476/206 251/473/189 275/474/189
f 253/477/207 252/475/205 277/478/208
f 277/478/208 252/475/205 276/476/206
f 254/479/209 253/477/207 278/480/209
f 278/480/209 253/477/207 277/478/208
f 255/481/210 254/479/209 279/482/210
f 279/482/210 254/479/209 278/480/209
f 256/483/211 255/481/210 280/484/212
f 280/484/212 255/481/210 279/482/210
f 257/485/164 256/483/211 281/486/164
f 281/486/164 256/483/211 280/484/212
f 258/487/213 257/485/164 282/488/213
f 282/488/213 257/485/164 281/486/164
f 259/489/214 258/487/213 283/490/214
f 283/490/214 258/487/213 282/488/213
f 260/491/215 259/489/214 284/492/216
f 284/492/216 259/489/214 283/490/214
f 261/493/217 260/491/215 285/494/217
f 285/494/217 260/491/215 284/492/216
f 262/495/218 261/493/217 286/496/219
f 286/496/219 261/493/217 285/494/217
f 263/497/172 262/495/218 287/498/172
f 287/498/172 262/495/218 286/496/219
f 264/499/220 263/497/172 288/500/221
f 288/500/221 263/497/172 287/498/172
f 265/501/222 264/499/220 289/502/222
f 289/502/222 264/499/220 288/500/221
f 266/503/223 265/501/222 290/504/223
f 290/504/223 265/501/222 289/502/222
f 267/505/224 266/503/223 291/506/224
f 291/506/224 266/503/223 290/504/223
f 268/507/225 267/505/224 292/508/225
f 292/508/225 267/505/224 291/506/224
f 245/509/181 268/507/225 269/510/181
f 269/510/181 268/507/225 292/508/225
f 269/416/149 197/414/149 270/415/149
f 270/415/149 197/414/149 198/413/149
f 270/415/149 198/413/149 271/418/149
f 271/418/149 198/413/149 199/417/149
f 271/418/149 199/417/149 272/420/149
f 272/420/149 199/417/149 200/419/149
f 272/420/149 200/419/149 273/422/149
f 273/422/149 200/419/149 201/421/149
f 273/422/149 201/421/149 274/424/149
f 274/424/149 201/421/149 202/423/149
f 274/424/149 202/423/149 275/426/149
f 275/426/149 202/423/149 203/425/149
f 276/428/149 275/426/149 204/427/149
f 204/427/149 275/426/149 203/425/149
f 277/430/149 276/428/149 205/429/149
f 205/429/149 276/428/149 204/427/149
f 278/432/149 277/430/149 206/431/149
f 206/431/149 277/430/149 205/429/149
f 279/434/149 278/432/149 207/433/149
f 207/433/149 278/432/149 206/431/149
f 280/436/149 279/434/149 208/435/149
f 208/435/149 279/434/149 207/433/149
f 281/438/149 280/436/149 209/437/149
f 209/437/149 280/436/149 208/435/149
f 281/438/149 209/437/149 282/440/149
f 282/440/149 209/437/149 210/439/149
f 282/440/149 210/439/149 283/442/149
f 283/442/149 210/439/149 211/441/149
f 283/442/149 211/441/149 284/444/149
f 284/444/149 211/441/149 212/443/149
f 284/444/149 212/443/149 285/446/149
f 285/446/149 212/443/149 213/445/149
f 285/446/149 213/445/149 286/448/149
f 286/448/149 213/445/149 214/447/149
f 286/448/149 214/447/149 287/450/149
f 287/450/149 214/447/149 215/449/149
f 288/452/149 287/450/149 216/451/149
f 216/451/149 287/450/149 215/449/149
f 289/454/149 288/452/149 217/453/149
f 217/453/149 288/452/149 216/451/149
f 290/456/149 289/454/149 218/455/149
f 218/455/149 289/454/149 217/453/149
f 291/458/149 290/456/149 219/457/149
f 219/457/149 290/456/149 218/455/149
f 292/460/149 291/458/149 220/459/149
f 220/459/149 291/458/149 219/457/149
f 269/416/149 292/460/149 197/414/149
f 197/414/149 292/460/149 220/459/149
f 305/320/148 306/321/148 304/322/148
f 304/322/148 306/321/148 303/323/148
f 303/323/148 306/321/148 312/324/148
f 306/321/148 307/325/148 312/324/148
f 309/326/148 310/327/148 308/328/148
f 308/328/148 310/327/148 307/325/148
f 307/325/148 310/327/148 312/324/148
f 310/327/148 311/329/148 312/324/148
f 298/326/149 300/328/149 297/327/149
f 300/328/149 301/325/149 297/327/149
f 299/320/149 294/322/149 302/321/149
f 294/322/149 293/323/149 302/321/149
f 293/323/149 295/324/149 302/321/149
f 302/321/149 295/324/149 301/325/149
f 301/325/149 295/324/149 297/327/149
f 295/324/149 296/329/149 297/327/149
f 293/330/150 294/331/150 303/332/150
f 303/332/150 294/331/150 304/333/150
f 294/331/151 299/334/151 304/333/151
f 304/333/151 299/334/151 305/335/151
f 299/334/152 302/336/152 305/335/152
f 305/335/152 302/336/152 306/337/152
f 302/336/153 301/338/153 306/337/153
f 306/337/153 301/338/153 307/339/153
f 301/338/154 300/340/154 307/339/154
f 307/339/154 300/340/154 308/341/154
f 300/340/155 298/342/155 308/341/155
f 308/341/155 298/342/155 309/343/155
f 298/342/156 297/344/157 309/343/157
f 309/343/157 297/344/157 310/345/157
f 297/344/158 296/346/158 310/345/158
f 310/345/158 296/346/158 311/347/158
f 295/348/159 293/330/159 312/349/159
f 312/349/159 293/330/159 303/332/159
f 313/350/160 314/351/160 315/352/160
f 315/352/160 314/351/160 316/353/160
f 316/354/148 318/355/148 315/356/148
f 315/356/148 318/355/148 317/357/148
f 319/358/149 320/354/149 313/357/149
f 313/357/149 320/354/149 314/355/149
f 314/351/161 320/359/161 316/353/161
f 316/353/161 320/359/161 318/360/161
f 319/361/162 313/350/162 317/362/162
f 317/362/162 313/350/162 315/352/162
f 322/363/163 321/364/164 346/365/163
f 346/365/163 321/364/164 345/366/164
f 323/367/165 322/363/163 347/368/166
f 347/368/166 322/363/163 346/365/163
f 324/369/167 323/367/165 348/370/168
f 348/370/168 323/367/165 347/368/166
f 325/371/169 324/369/167 349/372/170
f 349/372/170 324/369/167 348/370/168
f 326/373/171 325/371/169 350/374/171
f 350/374/171 325/371/169 349/372/170
f 327/375/172 326/373/171 351/376/172
f 351/376/172 326/373/171 350/374/171
f 328/377/173 327/375/172 352/378/173
f 352/378/173 327/375/172 351/376/172
f 329/379/174 328/377/173 353/380/175
f 353/380/175 328/377/173 352/378/173
f 330/381/176 329/379/174 354/382/177
f 354/382/177 329/379/174 353/380/175
f 331/383/178 330/381/176 355/384/179
f 355/384/179 330/381/176 354/382/177
f 332/385/180 331/383/178 356/386/180
f 356/386/180 331/383/178 355/384/179
f 333/387/181 332/385/180 357/388/181
f 357/388/181 332/385/180 356/386/180
f 334/389/182 333/387/181 358/390/182
f 358/390/182 333/387/181 357/388/181
f 335/391/183 334/389/182 359/392/184
f 359/392/184 334/389/182 358/390/182
f 336/393/185 335/391/183 360/394/185
f 360/394/185 335/391/183 359/392/184
f 337/395/186 336/393/185 361/396/187
f 361/396/187 336/393/185 360/394/185
f 338/397/188 337/395/186 362/398/188
f 362/398/188 337/395/186 361/396/187
f 339/399/189 338/397/188 363/400/189
f 363/400/189 338/397/188 362/398/188
f 340/401/190 339/399/189 364/402/190
f 364/402/190 339/399/189 363/400/189
f 341/403/191 340/401/190 365/404/192
f 365/404/192 340/401/190 364/402/190
f 342/405/193 341/403/191 366/406/194
f 366/406/194 341/403/191 365/404/192
f 343/407/195 342/405/193 367/408/196
f 367/408/196 342/405/193 366/406/194
f 344/409/197 343/407/195 368/410/198
f 368/410/198 343/407/195 367/408/196
f 321/411/164 344/409/197 345/412/164
f 345/412/164 344/409/197 368/410/198
f 346/413/148 345/414/148 370/415/148
f 370/415/148 345/414/148 369/416/148
f 347/417/148 346/413/148 371/418/148
f 371/418/148 346/413/148 370/415/148
f 348/419/148 347/417/148 372/420/148
f 372/420/148 347/417/148 371/418/148
f 349/421/148 348/419/148 373/422/148
f 373/422/148 348/419/148 372/420/148
f 350/423/148 349/421/148 374/424/148
f 374/424/148 349/421/148 373/422/148
f 351/425/148 350/423/148 375/426/148
f 375/426/148 350/423/148 374/424/148
f 351/425/148 375/426/148 352/427/148
f 352/427/148 375/426/148 376/428/148
f 352/427/148 376/428/148 353/429/148
f 353/429/148 376/428/148 377/430/148
f 353/429/148 377/430/148 354/431/148
f 354/431/148 377/430/148 378/432/148
f 354/431/148 378/432/148 355/433/148
f 355/433/148 378/432/148 379/434/148
f 355/433/148 379/434/148 356/435/148
f 356/435/148 379/434/148 380/436/148
f 356/435/148 380/436/148 357/437/148
f 357/437/148 380/436/148 381/438/148
f 358/439/148 357/437/148 382/440/148
f 382/440/148 357/437/148 381/438/148
f 359/441/148 358/439/148 383/442/148
f 383/442/148 358/439/148 382/440/148
f 360/443/148 359/441/148 384/444/148
f 384/444/148 359/441/148 383/442/148
f 361/445/148 360/443/148 385/446/148
f 385/446/148 360/443/148 384/444/148
f 362/447/148 361/445/148 386/448/148
f 386/448/148 361/445/148 385/446/148
f 363/449/148 362/447/148 387/450/148
f 387/450/148 362/447/148 386/448/148
f 363/449/148 387/450/148 364/451/148
f 364/451/148 387/450/148 388/452/148
f 364/451/148 388/452/148 365/453/148
f 365/453/148 388/452/148 389/454/148
f 365/453/148 389/454/148 366/455/148
f 366/455/148 389/454/148 390/456/148
f 366/455/148 390/456/148 367/457/148
f 367/457/148 390/456/148 391/458/148
f 367/457/148 391/458/148 368/459/148
f 368/459/148 391/458/148 392/460/148
f 368/459/148 392/460/148 345/414/148
f 345/414/148 392/460/148 369/416/148
f 370/461/199 369/462/181 394/463/199
f 394/463/199 369/462/181 393/464/181
f 371/465/200 370/461/199 395/466/200
f 395/466/200 370/461/199 394/463/199
f 372/467/201 371/465/200 396/468/202
f 396/468/202 371/465/200 395/466/200
f 373/469/203 372/467/201 397/470/203
f 397/470/203 372/467/201 396/468/202
f 374/471/204 373/469/203 398/472/204
f 398/472/204 373/469/203 397/470/203
f 375/473/189 374/471/204 399/474/189
f 399/474/189 374/471/204 398/472/204
f 376/475/205 375/473/189 400/476/206
f 400/476/206 375/473/189 399/474/189
f 377/477/207 376/475/205 401/478/208
f 401/478/208 376/475/205 400/476/206
f 378/479/209 377/477/207 402/480/209
f 402/480/209 377/477/207 401/478/208
f 379/481/210 378/479/209 403/482/210
f 403/482/210 378/479/209 402/480/209
f 380/483/211 379/481/210 404/484/212
f 404/484/212 379/481/210 403/482/210
f 381/485/164 380/483/211 405/486/164
f 405/486/164 380/483/211 404/484/212
f 382/487/213 381/485/164 406/488/213
f 406/488/213 381/485/164 405/486/164
f 383/489/214 382/487/213 407/490/214
f 407/490/214 382/487/213 406/488/213
f 384/491/215 383/489/214 408/492/216
f 408/492/216 383/489/214 407/490/214
f 385/493/217 384/491/215 409/494/217
f 409/494/217 384/491/215 408/492/216
f 386/495/218 385/493/217 410/496/219
f 410/496/219 385/493/217 409/494/217
f 387/497/172 386/495/218 411/498/172
f 411/498/172 386/495/218 410/496/219
f 388/499/220 387/497/172 412/500/221
f 412/500/221 387/497/172 411/498/172
f 389/501/222 388/499/220 413/502/222
f 413/502/222 388/499/220 412/500/221
f 390/503/223 389/501/222 414/504/223
f 414/504/223 389/501/222 413/502/222
f 391/505/224 390/503/223 415/506/224
f 415/506/224 390/503/223 414/504/223
f 392/507/225 391/505/224 416/508/225
f 416/508/225 391/505/224 415/506/224
f 369/509/181 392/507/225 393/510/181
f 393/510/181 392/507/225 416/508/225
f 393/416/149 321/414/149 394/415/149
f 394/415/149 321/414/149 322/413/149
f 394/415/149 322/413/149 395/418/149
f 395/418/149 322/413/149 323/417/149
f 395/418/149 323/417/149 396/420/149
f 396/420/149 323/417/149 324/419/149
f 396/420/149 324/419/149 397/422/149
f 397/422/149 324/419/149 325/421/149
f 397/422/149 325/421/149 398/424/149
f 398/424/149 325/421/149 326/423/149
f 398/424/149 326/423/149 399/426/149
f 399/426/149 326/423/149 327/425/149
f 400/428/149 399/426/149 328/427/149
f 328/427/149 399/426/149 327/425/149
f 401/430/149 400/428/149 329/429/149
f 329/429/149 400/428/149 328/427/149
f 402/432/149 401/430/149 330/431/149
f 330/431/149 401/430/149 329/429/149
f 403/434/149 402/432/149 331/433/149
f 331/433/149 402/432/149 330/431/149
f 404/436/149 403/434/149 332/435/149
f 332/435/149 403/434/149 331/433/149
f 405/438/149 404/436/149 333/437/149
f 333/437/149 404/436/149 332/435/149
f 405/438/149 333/437/149 406/440/149
f 406/440/149 333/437/149 334/439/149
f 406/440/149 334/439/149 407/442/149
f 407/442/149 334/439/149 335/441/149
f 407/442/149 335/441/149 408/444/149
f 408/444/149 335/441/149 336/443/149
f 408/444/149 336/443/149 409/446/149
f 409/446/149 336/443/149 337/445/149
f 409/446/149 337/445/149 410/448/149
f 410/448/149 337/445/149 338/447/149
f 410/448/149 338/447/149 411/450/149
f 411/450/149 338/447/149 339/449/149
f 412/452/149 411/450/149 340/451/149
f 340/451/149 411/450/149 339/449/149
f 413/454/149 412/452/149 341/453/149
f 341/453/149 412/452/149 340/451/149
f 414/456/149 413/454/149 342/455/149
f 342/455/149 413/454/149 341/453/149
f 415/458/149 414/456/149 343/457/149
f 343/457/149 414/456/149 342/455/149
f 416/460/149 415/458/149 344/459/149
f 344/459/149 415/458/149 343/457/149
f 393/416/149 416/460/149 321/414/149
f 321/414/149 416/460/149 344/459/149
